<svg xmlns="http://www.w3.org/2000/svg" width="814.601" height="258" viewBox="0 0 814.601 258">
  <g id="Beehive_form" transform="translate(463.301 -396.5)">
    <g id="超立淨" transform="translate(426.144 711.342)">
      <path id="Path_509" data-name="Path 509" d="M355.79,728.72l18.53-32.247L392.8,664.54,374.32,632.607,355.79,600.72H281.761l-18.215,31.888-18.53,31.932,18.53,31.932,18.215,32.247H355.79Z" transform="translate(-468.804 -850.705)" fill="none" stroke="#c9caca" stroke-miterlimit="10" stroke-width="2" fill-rule="evenodd"/>
    </g>
    <g id="歡樂購" transform="translate(91.144 525.342)">
      <path id="Path_510" data-name="Path 510" d="M355.79,728.72l18.53-32.247L392.8,664.54,374.32,632.607,355.79,600.72H281.761l-18.215,31.888-18.53,31.932,18.53,31.932,18.215,32.247H355.79Z" transform="translate(-244.804 -600.562)" fill="none" stroke="#c9caca" stroke-miterlimit="10" stroke-width="2" fill-rule="evenodd"/>
    </g>
    <g id="特約商店" transform="translate(201.144 589.342)">
      <path id="Path_142" data-name="Path 142" d="M355.79,728.72l18.53-32.247L392.8,664.54,374.32,632.607,355.79,600.72H281.761l-18.215,31.888-18.53,31.932,18.53,31.932,18.215,32.247H355.79Z" transform="translate(-465.804 -728.72)" fill="none" stroke="#c9caca" stroke-miterlimit="10" stroke-width="2" fill-rule="evenodd"/>
    </g>
    <g id="生活樂租" transform="translate(-123.433 524.357)">
      <path id="Path_142-2" data-name="Path 142" d="M355.79,600.72l18.53,32.247L392.8,664.9,374.32,696.832,355.79,728.72H281.761l-18.215-31.888L245.016,664.9l18.53-31.932,18.215-32.247H355.79Z" transform="translate(-251.727 -599.735)" fill="none" stroke="#c9caca" stroke-miterlimit="10" stroke-width="2" fill-rule="evenodd"/>
    </g>
    <g id="生活房屋" transform="translate(-231.133 589.69)">
      <path id="Path_509-2" data-name="Path 509" d="M355.79,600.72l18.53,32.247L392.8,664.9,374.32,696.832,355.79,728.72H281.761l-18.215-31.888L245.016,664.9l18.53-31.932,18.215-32.247H355.79Z" transform="translate(-144.027 -792.91)" fill="none" stroke="#c9caca" stroke-miterlimit="10" stroke-width="2" fill-rule="evenodd"/>
    </g>
    <g id="裝修達人" transform="translate(-456.144 587.69)">
      <path id="Path_511" data-name="Path 511" d="M355.79,600.72l18.53,32.247L392.8,664.9,374.32,696.832,355.79,728.72H281.761l-18.215-31.888L245.016,664.9l18.53-31.932,18.215-32.247H355.79Z" transform="translate(-29.516 -727.068)" fill="none" stroke="#c9caca" stroke-miterlimit="10" stroke-width="2" fill-rule="evenodd"/>
    </g>
    <g id="共享圈" transform="translate(-341.753 524.306)">
      <path id="Path_510-2" data-name="Path 510" d="M355.79,600.72l18.53,32.247L392.8,664.9,374.32,696.832,355.79,728.72H281.761l-18.215-31.888L245.016,664.9l18.53-31.932,18.215-32.247H355.79Z" transform="translate(-254.907 -599.683)" fill="none" stroke="#c9caca" stroke-miterlimit="10" stroke-width="2" fill-rule="evenodd"/>
    </g>
    <g id="好幫手" transform="translate(-464.144 455.357)">
      <path id="Path_511-2" data-name="Path 511" d="M355.79,728.72l18.53-32.247L392.8,664.54,374.32,632.607,355.79,600.72H281.761l-18.215,31.888-18.53,31.932,18.53,31.932,18.215,32.247H355.79Z" transform="translate(-243.016 -594.72)" fill="none" stroke="#c9caca" stroke-miterlimit="10" stroke-width="2" fill-rule="evenodd"/>
    </g>
  </g>
</svg>
