<svg xmlns="http://www.w3.org/2000/svg" width="69" height="66.34" viewBox="0 0 69 66.34">
  <g id="decoration_expert" transform="translate(-478.472 -941.172)">
    <path id="Path_528" data-name="Path 528" d="M519.484,1017.6v-1.275h.255l4.918-.291-.51,1.567h-4.663Zm-2.732,0h2.732v-1.275h0l-2.732-.255v1.53Zm0-3.1v-1.312h1.967v-.765h-1.967v-1.275h1.967V1010.1h-1.967v-1.275h.146l-.146-.219v-2.368h1.967v-1.056h-1.967V1003.9h1.967v-1.311h.765v4.918h-1.822l.765,1.312h1.057v6.958h-.765V1014.5Zm2.732,1.275h.765V1014.5h4.408v-1.312h-4.408v-.765h3.607v-1.275h-3.607V1010.1h3.9v-1.275h-2.077l.51-1.312h2.077v-1.275h-4.408v-1.056h3.9V1003.9h-3.9v-1.311h-.765v4.918h1.53l-.51,1.312h-1.02v6.958Zm22.988,1.056-1.02,1.275h0l-2.332-2.077-1.822-2.04-1.53-2.077-1.02-2.077h0l-.8,2.332-1.275,2.077-2.077,1.785-2.332,1.822-1.02-1.275h0l1.53-1.057,1.312-1.275,1.275-1.312.8-1.275.765-1.311.51-1.53.51-1.567v-4.663h1.822v3.643h0v1.53l.255,1.312.765,1.275.8,1.566h0l1.02,1.275,1.02,1.312,2.842,2.331Zm-25.72-12.933v1.275h-2.186V1003.9Zm0,2.332v2.368l-.619-1.093h-1.822v-1.275Zm0,2.587v1.275h-2.186v-1.275Zm0,2.332v1.275h-1.931v-1.275Zm0,2.04v1.312h-2.7v-1.312Zm0,2.878-.364-.036h-1.057l-1.02-.255h0l-.765-.51-.8-.51h0l1.057-2.587v-1.567h-2.332l2.332-3.1v-1.275h-4.408v1.275h2.587l-1.275,1.822-1.057,1.275v1.567h2.587l-.51,1.275-.51,1.312-1.056,1.02-1.02,1.312,1.275,1.02h0l1.822-2.332h0l1.057.8,1.275.765,1.567.255h.619v-1.53Zm-14.062.474V1014.8l.51-.291,1.275-1.057,1.056-1.02,1.275,1.02h0l-1.53,1.312-1.311,1.02-1.275.765Zm0-2.732.255-.073,2.04-1.822-1.02-.765h0l-1.275.911v1.749Zm0-3.024v-.8l.51.364h0l-.51.437Zm0-1.6,1.275.656,2.332.765.51-1.275h0l-1.822-.51-1.785-.8h0l1.275-1.275,1.056-1.311h1.02v-1.53h-3.862v1.53h1.02l-.765.8-.255.328v2.623Zm10.856-4.517-1.057,1.057h0l-1.275-1.312-1.566-.765,1.311-1.311h0l1.275,1.057,1.312,1.275Zm-10.856-.765v1.53h-2.332v-2.842l1.02.291-.51,1.02h1.822Zm0,2.659v2.623l-.8-.364h0l-1.53,1.02h0v-1.53l.255-.291h0l-.255-.51h0v-1.785h.255l.51.765,1.02.765h0l.546-.692Zm0,3.424-.546-.4-1.785,1.02h0v1.567h0l1.53-.765.8-.619v-.8Zm0,2.077v1.749l-2.332.947h0v-1.567l1.785-.765.546-.364Zm0,2.732v1.749l-.546.291-1.785.51h0v-1.567h0l1.53-.51.8-.474Zm-2.878,2.659.546-.109h0v-1.567h0l-.546.146v1.53Zm0-2.587.546-.109h0v-1.567h0l-.546.146v1.53Zm0-2.514V1010.9l.546-.291h0v1.567h0l-.546.182Zm0-2.368.546-.146h0v-1.53h0l-.546.146v1.53Zm0-2.987.546.51v-1.785l-.546.364V1007Zm0-1.567h.546v-2.842h-.546Zm0-2.842v2.842h0l-1.53,1.567-1.312-1.02h0l1.567-1.567,1.275-1.821Zm0,3.5-.51.4h0l.51.51v-.911Zm0,2.368v1.53l-2.04.619-.51-1.53h0l1.53-.255,1.02-.364Zm0,2.441v1.457l-1.785.583-.765-1.275h0l1.53-.255,1.02-.51Zm0,2.441v1.53l-1.785.4-.51-1.275h0l2.3-.656Zm0,2.587v1.53l-2.3.4-.546-1.275h0l1.567-.255,1.275-.4Zm-4.262.4v-11.148h.146v11.148Zm0-12.1v-1.421l.146.073v1.02h0l-.146.328Zm.146,12.1h1.02v-11.148h-1.02v11.148Zm0-12.423h0l.255-1.02h-.255Zm-.146-1.093v1.421l-.364.947-.51,1.566v11.111h-1.567v-8.525h0l-1.02,1.02-.8-1.53h0l.8-1.312,1.02-1.275,1.275-3.9,1.166.474Zm0,2.368h-.109v11.148h.109v-11.148Zm-12.022,10.6v-2.4l.291.364.765,1.02h0l.765-.51h0v2.842l-1.53-1.057h0l-.291-.255Zm0-3.352v-1.53h1.822v1.53Zm0-3.1v-1.312h.291v-2.3h-.291v-1.312h.291v-1.821h1.53v6.74Zm5.428-3.607v-1.312h-3.607v-1.821h0v6.74h3.1v-1.312h-3.1v-2.3Zm-3.607,11.366h0l1.311.51,1.53.51h0l.765-1.53-1.53-.255-1.567-.8h0l2.587-1.785h0l-1.275-1.056-1.822,1.567h0v2.842Zm0-4.663h3.607v-1.53h-3.607Zm-1.822-8.015v1.312h-3.1v-1.312Zm0,3.607v1.312H480.94v-1.312Zm0,2.878v1.53H480.94l-.765.765-1.275.8v2.332h0l3.352-.8v1.567h0l-2.587.51-1.312.291v-5.137l.546-.328h-.546v-1.53h2.332l-.51-.8,1.567-.255h0l.765,1.057Zm0,2.477-.51-.692-1.275.255h0l.765,1.822,1.02,1.02v-2.4Zm-5.173-5.61h0v2.587h1.567v-7.76h-1.567v1.821h0v1.312h0v.765h0Zm0-3.352v1.312h-1.53v-1.312Zm0,2.077v1.275h-1.53v-1.275Zm0,4.408v1.53h-1.53v-1.53Zm0,1.858v5.137l-1.02.219-.51-1.275h0l.51-.51v-1.311h0l-.51.255v-1.53h0l1.53-.984Zm-1.53-8.343h-.51v-1.53h-1.567v2.842h2.077v-1.312Zm0,2.077h-3.1v1.275h1.53v.546l-.51.765-.255.255-.51.255h0l1.02,1.02.51-.51.8-.51.255-.765.255-1.057h0v-1.275Zm0,4.408h-3.1v1.53h3.1v-1.53Zm0,2.842h0l-1.567.51-1.785.765h0l.765,1.311,2.587-1.056h0Z" transform="translate(5 -10.599)" fill="#fff" fill-rule="evenodd"/>
    <path id="Path_529" data-name="Path 529" d="M542.079,962.777l.4.4.861,1.205.8,1.205h0l.8,4.075v2.066l-.4,1.607h0l-.4,1.665-.8,1.607-1.263,1.607v-3.042l.4-.631.459-1.607h0v-3.272l-.861-3.214v-3.674Zm0-9.815,15.1,8.552v.4h0l.8.459h0v.4h0l-.4.4h0l-.4.4h-8.151v21.18h0v2.009h2.009v-21.18h5.74l1.205-.4,1.205-.8h0l.4-1.205h0v-1.263h0l-.4-1.205-1.205-.8-15.9-8.954Zm-2.813,7.347h0l1.205.8h0l1.607,1.665v3.674h0l-1.205-2.066-1.607-1.607v-2.468Zm2.813,17.909h0l-1.607,1.665h0l-1.205,1.205v-2.468h0l1.607-1.607.8-1.205.4-.631v3.042Zm0-27.265v2.009l-2.813-1.607v-2.066l2.813,1.665Zm-4.248,35.817h.574v-4.879l.861-.8v-2.468l-1.435,1.205v6.945Zm0-17.622v-2.066l.172.574.4,1.205-.574.287Zm0-7.4,1.435,1.033h0v-2.468l-1.435-1.091v2.526Zm0-11.25,1.435.861v-2.066l-1.435-.8Zm0-2.009v2.009l-4.707-2.812-23.591,13.833h0l-.861.4v.861h0l-.4.4.4.4h8.552v21.18h9.815v-2.87h0l-2.066-1.205h0l-2.411-2.066h0l-1.263-2.411-.4-.8.8-.861,1.665-.8h0l-.4-2.813h0l.4-3.272h0l1.205-2.87.4-.4,1.263-.8.8-.8.4,1.205,2.411,4.879,1.665.8,4.477-2.009-2.87-8.151-.4-.8.8-.4,1.263-.4.8-.459.4.459h0l1.837,1.32v2.526l-2.64-1.837h0l2.64,7.175v2.066l-.23.115-5.683,2.468h-.4l-.4-.4-2.468-.8-.4-.459-2.009-4.477h0l-1.263,2.468h0v2.87h0v1.205l.4,1.607.4.8-.8.459-1.607.8.8,1.607h0l1.607,1.665h0l2.468,1.205.4.4v6.084H515.217v-21.18h-6.945l-.8-.8h0l-.8-.4v-.8h0v-1.665h0l.8-1.205,1.205-.8,24.05-13.833.4-.4.4.4,4.3,2.411Zm0,31.34-1.033.861-.4.4v5.683h1.435Z" transform="translate(-20.192 -4.5)" fill="#fff" fill-rule="evenodd"/>
  </g>
</svg>
