<svg xmlns="http://www.w3.org/2000/svg" width="85.124" height="65.666" viewBox="0 0 85.124 65.666">
  <g id="Good_life_color" transform="translate(-3.588)">
    <g id="Group_69" data-name="Group 69" transform="translate(24.147)">
      <path id="Subtraction_4" data-name="Subtraction 4" d="M17.57,21.64H4.031A4.024,4.024,0,0,1,0,17.61V4.031A4.05,4.05,0,0,1,4.031,0H17.57A4.05,4.05,0,0,1,21.6,4.031V17.61a4.024,4.024,0,0,1-4.03,4.03ZM3.639,15.379h0v1.369H17.766l.783-1.369H12.287v-2.9h4.344l.822-1.409H12.287V8.218h4.852l.822-1.291H12.287V4.891H10.526V6.927H7.278l.313-.861.2-.94L6.065,4.891,5.557,6.379l-.274.665-.313.508L4.148,8.727l-1.135.978,1.448.86,1.1-1.1L6.574,8.218h3.952v2.857H5.165v1.409h5.361v2.9Z" fill="#f09dc1"/>
      <path id="Subtraction_3" data-name="Subtraction 3" d="M17.609,21.64H4.031A4.05,4.05,0,0,1,0,17.61V4.031A4,4,0,0,1,1.193,1.194,4,4,0,0,1,4.031,0H17.609A4.05,4.05,0,0,1,21.64,4.031V17.61a4.024,4.024,0,0,1-4.031,4.03ZM10.37,11.075c-1.521,0-2.544,1.558-2.544,3.013a2.78,2.78,0,0,0,2.544,2.9h5.674l.509-.117a2.749,2.749,0,0,0,2.035-2.778,3.125,3.125,0,0,0-2.035-3.013H13.813V9.47h3.952l.822-1.37H13.813V6.379h.43l2.309-.2L18.2,5.948,17.883,4.7l-1.839.078L13.3,5.009l-2.817.2H8.022l.2,1.409L12.092,6.5V8.1H7.435V9.47h4.657v1.6Zm-4.07.43L5.791,12.8l-.7,1.174-.9,1.1L3.052,16.122l1.644.743.9-.978.9-1.173.7-1.253.743-1.526L6.3,11.505ZM4.383,8.1h0L3.444,9.275l1.33.626,1.644.978L7.435,9.705,5.791,8.727,4.383,8.1Zm.078-3.326L3.444,5.948l1.448.665L6.5,7.67,7.513,6.614l-1.526-1.1L5.2,5.126l-.743-.352Zm11.5,10.683H10.487c-.857-.155-1.055-.463-1.252-1.37.073-.692.44-1.446,1.252-1.486h5.478a1.128,1.128,0,0,1,1.141,1.03,1.647,1.647,0,0,1-1.141,1.826Z" transform="translate(23.08)" fill="#7dccf3"/>
      <path id="Subtraction_2" data-name="Subtraction 2" d="M17.57,21.64H4.031A4.024,4.024,0,0,1,0,17.61V4.031A4.05,4.05,0,0,1,4.031,0H17.57a4.053,4.053,0,0,1,2.871,1.194,3.981,3.981,0,0,1,1.2,2.837V17.61A4.055,4.055,0,0,1,17.57,21.64ZM3.13,6.222h0V7.631h1.33L3.639,10.1l-.274.822-.43.665-.078.313v.2l.078.352.2.2,2.348,1.292a17.961,17.961,0,0,1-2.935,1.917l1.409,1.173a13.486,13.486,0,0,0,2.544-1.8l.391-.548,2.348,1.37.9-1.37L7.9,13.5l.626-1.174.509-1.291.391-1.174.2-1.291.235-2.035-.235-.2-.274-.117H6.691L7,4.853,6.5,4.735l-1.33-.117-.313,1.6Zm8.218,8.335h0c-.094.328-.189.618-.281.9-.062.19-.126.385-.189.589a7.762,7.762,0,0,0,2.875.635,4.072,4.072,0,0,0,1.194-.165,2.644,2.644,0,0,0,1.741-1.8,6.506,6.506,0,0,0-.137-3.561h1.409l.822-1.409H15.926l-.509-.627-.2-.235-.078-.313.2-.2.391-.313L19.1,5.791l-.939-1.056H10.448V6.1h5.674L13.109,8.062l-.235.2-.078.235.078.2.235.2.391.43.313.431H10.252v1.409h4.383v.117c.451.977.725,2.834-.117,3.717a1.444,1.444,0,0,1-.995.364,3.27,3.27,0,0,1-.531-.051l-.1-.035a5.268,5.268,0,0,1-1.54-.709ZM6.5,12.757h0L5.087,11.9l-.235-.117v-.313l.43-.743.391-.861L6.1,8.805l.274-1.174H8.1L8.022,8.883l-.313,1.292L7.2,11.465l-.7,1.291Z" transform="translate(0.052 22.909)" fill="#fcd13e"/>
      <path id="Subtraction_1" data-name="Subtraction 1" d="M17.609,21.64H4.07A4.055,4.055,0,0,1,0,17.61V4.031A3.981,3.981,0,0,1,1.2,1.194,4.053,4.053,0,0,1,4.07,0H17.609A4.05,4.05,0,0,1,21.64,4.031V17.61a4.024,4.024,0,0,1-4.031,4.03ZM8.3,15.574h0v1.291l1.135.117.274.039.626.04h.7l.626-.079a1.717,1.717,0,0,0,1.017-1.173V14.087l.783.627.743.587.078.078.626.313.783.43,2.035.743,1.252-1.409-1.448-.313-1.1-.43L15.418,14.2l-.822-.665-.391-.352-.509-.509-.626-.743h3.365l-1.839.743,1.017,1.409,1.526-.743,1.213-.665-1.526-.822.117-.234v-1.37h.9l.7-1.291h-1.6V7.787l-.117-.235-.2-.2-.2-.118H12.679V6.927h4.852l.7-1.487h-5.87v-.86H10.331v.86H4.422l-.2.079H4.148l-.235.234v4.931l-.039,1.722a8.963,8.963,0,0,1-.548,2.544L2.7,16.435l1.957.43.274-.743.313-.743.509,1.056,2.309-.783.234-.078Zm1.917,0H9.7l-1.017-.117.43-.2.587-.235,1.017-.391v.509l-.078.235-.117.078-.313.117Zm-4.852-.626h0L5.752,12.8l1.213.665.939.509.156-.156L9.118,12.8,8.1,12.288l-.039-.039L7.4,11.936h3.326V14.2l-.783-.978-.235.117-.7.313-.939.392-.078.039-2.621.861Zm.391-2.27h0l.117-1.486v-.939h4.852v.626H6.574v1.057l-.821.742Zm9.861-1.8H12.679v-.626h3.013v.508l-.078.117Zm.078-1.917H12.679V8.218h2.935l.078.079v.665Zm-4.97,0H5.87V7.122l.078-.2h4.774v.313H6.574v.978h4.148v.743Z" transform="translate(23.132 22.909)" fill="#c2d84e"/>
    </g>
    <path id="Path_74" data-name="Path 74" d="M924.491,1047.235v-1.278h3.1a.866.866,0,0,1,.365-.122.865.865,0,0,0,.122-.365v-2.616c-.061-.182-.061-.243-.122-.3a.864.864,0,0,0-.365-.122h-3.1v-1.278h3.833a2.029,2.029,0,0,1,.73.3,3.722,3.722,0,0,1,.3.73v4.016a1.711,1.711,0,0,1-.3.669,1.052,1.052,0,0,1-.73.365Zm0-7.91v-1.278H929.6a.552.552,0,0,1,.426.182.6.6,0,0,1,.183.487.434.434,0,0,1-.183.365.459.459,0,0,1-.426.243Zm0-3.1V1035H929.6a.9.9,0,0,1,.548.122.809.809,0,0,1,.183.487.474.474,0,0,1-.183.426.981.981,0,0,1-.548.183Zm0-1.217v1.217h-.122v1.825h.122v1.278h-.122v1.825h.122v1.278h-3.164a.447.447,0,0,0-.365.122.267.267,0,0,0-.061.3v2.616a.772.772,0,0,0,.061.365.514.514,0,0,0,.365.122h3.164v1.278h-3.833a1.373,1.373,0,0,1-.73-.3,1.264,1.264,0,0,1-.3-.73v-4.016a1.875,1.875,0,0,1,.3-.73,1.265,1.265,0,0,1,.73-.3h2.495v-4.928h-3.833c-.243,0-.365.122-.365.426v4.99a12.239,12.239,0,0,1-1.034,5.294c-.183.182-.3.3-.487.3s-.3-.061-.426-.061a.65.65,0,0,1-.183-.974,13.47,13.47,0,0,0,.852-4.929v-5.233a1.223,1.223,0,0,1,.243-.791,1.19,1.19,0,0,1,.852-.243h4.381c0-.548.061-.913.183-.974.061-.122.182-.182.426-.182a.552.552,0,0,1,.426.182c.122.061.182.365.182.974Zm-21.3,12.534V1046.2h.122a2.131,2.131,0,0,0,.974.122.494.494,0,0,0,.243-.487v-4.5h-1.339v-1.156h1.339v-1.1c0-.061-.061-.122-.122-.243s-.122-.122-.243-.122h-.974V1037.5h1.46a.981.981,0,0,1,.791.365,2.3,2.3,0,0,1,.365.791v7.667a1.226,1.226,0,0,1-.608,1.034,1.3,1.3,0,0,1-.73.243,7.41,7.41,0,0,1-1.278-.061Zm0-1.947a.981.981,0,0,0,.183-.548v-2.069a1.027,1.027,0,0,0-.183-.608v3.225Zm0-9.553v-1.217h2.921a.526.526,0,0,1,.365.182c.122.061.183.183.183.426a.553.553,0,0,1-.183.426.526.526,0,0,1-.365.182Zm0-1.217v1.217a3.229,3.229,0,0,0-.3.852c-.122.243-.183.487-.243.608h.548v1.217h-1.4v.974c0,.182,0,.3.061.365a.879.879,0,0,0,.426.122h.913v1.156h-1.521a1.265,1.265,0,0,1-.73-.3,1.282,1.282,0,0,1-.3-.791v-1.521h-.852V1037.5h1.521a14.568,14.568,0,0,0,.608-1.46h-2.13v-2.251a.658.658,0,0,1,.426.182c.122.061.183.365.183.852Zm0,7.545v3.225c-.061.061-.061.061-.061.122a1.007,1.007,0,0,1-.73.3h-2.616v-1.156h1.886c.183-.061.3-.061.365-.122a.864.864,0,0,0,.122-.365v-.852a1.026,1.026,0,0,1-.122-.3c-.061-.061-.183-.061-.365-.061h-1.886V1042H902.4a.783.783,0,0,1,.73.243c0,.061,0,.061.061.122Zm0,3.833v1.339a1.3,1.3,0,0,1-.608-.365,1.432,1.432,0,0,1-.122-.487C902.647,1046.322,902.89,1046.14,903.195,1046.2Zm-3.407-12.413v2.251h-2.13a7.443,7.443,0,0,1,.608,1.46h1.521v1.217h-.852v.183a3.039,3.039,0,0,1-1.7,2.312c-.913.548-1.521.669-1.886.548a.411.411,0,0,1-.243-.365.294.294,0,0,1,.061-.426.71.71,0,0,1,.365-.365c.608-.183.974-.3,1.278-.426a1.744,1.744,0,0,0,.913-1.46h-2.251a.465.465,0,0,0-.3.122.394.394,0,0,0-.122.3v7.849a.553.553,0,0,1-.183.426.809.809,0,0,1-.487.182.552.552,0,0,1-.426-.182.657.657,0,0,1-.183-.426v-8.4a1.562,1.562,0,0,1,.3-.73,1.071,1.071,0,0,1,.791-.365h2.13q-.548-1.46-.73-1.46h-2.8a.474.474,0,0,1-.426-.182.553.553,0,0,1-.183-.426.474.474,0,0,1,.183-.426c.061-.122.183-.182.426-.182h5.72a1.813,1.813,0,0,1,.122-.852.6.6,0,0,1,.487-.182Zm0,8.214h-2.738a.97.97,0,0,0-.73.243.783.783,0,0,0-.243.73v2.069a1.133,1.133,0,0,0,.243.669,2.03,2.03,0,0,0,.73.3h2.738v-1.156h-2.069a.653.653,0,0,1-.365-.122c0-.122-.061-.243-.061-.365v-.852a2.645,2.645,0,0,1,.061-.3.4.4,0,0,1,.365-.061h2.069V1042Zm-21.965,5.172v-1.339c1.1.3,1.825.365,2.19.122a3.052,3.052,0,0,0,.669-1.156c.3-.913.487-3.529.487-7.91a1.879,1.879,0,0,1-.122-.487.879.879,0,0,0-.426-.122h-2.8V1035h3.407a1.426,1.426,0,0,1,.669.122c.243.122.365.243.365.487a1.874,1.874,0,0,1,.182.791c0,2.86-.122,5.172-.182,6.936a9.447,9.447,0,0,1-.669,2.616,2.156,2.156,0,0,1-1.034,1.156,3.748,3.748,0,0,1-1.582.243,3.82,3.82,0,0,1-1.156-.182Zm0-4.624c.061.182.122.365.182.608a.408.408,0,0,0,.243.426,1.187,1.187,0,0,0,.487.061.812.812,0,0,0,.365-.3c.122-.122,0-.669-.243-1.582-.426-1.339-.73-2.373-1.034-3.042Zm0-7.545v1.278h-1.278c-.669,1.339-1.156,2.069-1.46,2.069a1.127,1.127,0,0,1-.426-.122H874.6v-.852a8.076,8.076,0,0,0,1.4-3.1.98.98,0,0,1,.243-.426.361.361,0,0,1,.426-.061.616.616,0,0,1,.426.243,2.13,2.13,0,0,1-.122.974Zm0,3.712c-.061-.122-.061-.243-.122-.365q-.091-.365-.365-.365a.52.52,0,0,0-.426,0,.623.623,0,0,0-.365.3,1.1,1.1,0,0,0,.061.609c.426,1.1.852,2.373,1.217,3.651v-3.833Zm0,7.119v1.339a5.37,5.37,0,0,1-.913-.3c-.3-.061-.426-.183-.487-.365v-.487a.605.605,0,0,1,.852-.365l.548.183Zm-3.225.365V1042l.122.122a.6.6,0,0,1,.3.426l.426,2.981a.621.621,0,0,1-.122.548.447.447,0,0,1-.365.122.388.388,0,0,1-.365,0Zm0-4.5v-3.042c.669,1.582.974,2.555.791,2.8a.5.5,0,0,1-.3.3A1.338,1.338,0,0,1,874.6,1041.7Zm0-4.32v.852l-.183-.365a.691.691,0,0,1,.183-.487Zm0,1.278-.061-.183a.727.727,0,0,0-.426-.426,3.434,3.434,0,0,1-.426.061,1.613,1.613,0,0,0-.3.365,4.086,4.086,0,0,0,.426,1.278l-2.069.122a22.745,22.745,0,0,0,2.738-4.077v-.426a.691.691,0,0,0-.365-.365h-.426a1.034,1.034,0,0,0-.365.365,10.224,10.224,0,0,1-1.278,2.19,4.2,4.2,0,0,0-.791-.669c.974-1.521,1.46-2.434,1.4-2.738a.31.31,0,0,0-.243-.3.3.3,0,0,0-.426-.061.46.46,0,0,0-.426.243c-.365.73-.791,1.46-1.156,2.069a.865.865,0,0,0-.365-.122v1.4a7.925,7.925,0,0,1,1.339,1.156,17,17,0,0,1-1.339,1.521h0v1.156l1.765-.122v5.963a.657.657,0,0,0,.183.426.474.474,0,0,0,.426.182.624.624,0,0,0,.608-.608v-6.024l1.156-.122c.182.426.3.73.426.791h0v-3.042Zm0,3.347v4.2h-.061a.961.961,0,0,1-.3-.487l-.426-2.981a.473.473,0,0,1,.122-.487c.122-.122.183-.243.3-.243q.274-.091.365,0Zm-4.564,4.807v-4.868a.514.514,0,0,1,.426-.122.459.459,0,0,1,.426.243c.122.061.122.182.122.426a22.5,22.5,0,0,1-.73,3.894C870.216,1046.626,870.155,1046.748,870.033,1046.809Zm0-10.831v1.4c-.122-.122-.243-.182-.365-.3a.442.442,0,0,1-.365-.365v-.487a.616.616,0,0,1,.426-.244.271.271,0,0,1,.3,0Zm0,4.077v1.156h-.365c-.182,0-.365-.061-.487-.061a.6.6,0,0,1-.183-.487c0-.183.061-.3.061-.426a.744.744,0,0,1,.548-.183Zm0,1.886v4.868h0a1.875,1.875,0,0,1-.548.061c-.183-.061-.3-.122-.365-.3v-.487a19.05,19.05,0,0,0,.73-3.651.552.552,0,0,1,.183-.426v-.061Zm-17.341,4.685v-.365a.386.386,0,0,1,.365-.3c.061-.122.243-.122.487-.061a7.768,7.768,0,0,0,1.765.3.981.981,0,0,0,.548-.183.879.879,0,0,0,.122-.426v-3.347h-3.286v-1.217h3.286v-1.643h-3.286v-1.217h1.1v-1.643h-1.1v-1.217h1.1c0-.852.061-1.278.183-1.4.061-.122.182-.182.426-.182a.553.553,0,0,1,.426.182.438.438,0,0,1,.243.426v.974h2.921a.526.526,0,0,1,.365.183c.122.061.183.243.183.487a.646.646,0,0,1-.548.548h-2.921v1.643h3.407a.552.552,0,0,1,.426.182c.122.061.183.243.183.487a.526.526,0,0,1-.183.365.553.553,0,0,1-.426.182h-1.278v1.643h1.156a.879.879,0,0,1,.426.122.6.6,0,0,1,.183.487.657.657,0,0,1-.183.426.552.552,0,0,1-.426.182h-1.156v3.712a1.627,1.627,0,0,1-.122.669,1.546,1.546,0,0,1-1.4.852q-2.556,0-2.921-.73c-.061-.061-.061-.061-.061-.122Zm0-1.825c.061.061.122.182.243.3a1.612,1.612,0,0,0,.365.3.731.731,0,0,0,.487-.122c.122-.122.243-.243.243-.365a.9.9,0,0,0-.122-.547,14.359,14.359,0,0,0-1.217-1.4Zm-2.251-3.529c.183-.182.3-.3.3-.365a.981.981,0,0,0-.183-.548c-.061,0-.061-.061-.122-.061v.974Zm0-3.347c.061-.061.122-.061.183-.122a.553.553,0,0,0,.182-.426c0-.243-.061-.365-.182-.426-.061-.061-.122-.122-.183-.122v1.1Zm2.251-2.616v1.217H851.11a.552.552,0,0,1-.426-.183.526.526,0,0,1-.183-.365.6.6,0,0,1,.183-.487.474.474,0,0,1,.426-.183Zm0,2.86v1.217h-1.947a.455.455,0,0,1-.3-.061v-1.1a2.636,2.636,0,0,1,.3-.061Zm0,2.86v1.217H851.11a.879.879,0,0,1-.426-.122.971.971,0,0,1-.183-.487.691.691,0,0,1,.183-.487.71.71,0,0,1,.426-.122Zm0,1.947v1.825a6.875,6.875,0,0,0-1.1-1.156.553.553,0,0,1-.243-.487.657.657,0,0,1,.182-.426.552.552,0,0,1,.426-.182.657.657,0,0,1,.426.182c.122.061.183.182.3.243Zm0,3.286v.365a.387.387,0,0,1,0-.365Zm-4.807-4.746a12.674,12.674,0,0,1-2.19,1.156.452.452,0,0,0-.365.365c-.061.122,0,.243.061.426a.548.548,0,0,0,.365.365,1.036,1.036,0,0,0,.426-.061,14.59,14.59,0,0,0,1.7-.791v4.137a1.127,1.127,0,0,0,.122.426.691.691,0,0,0,.487.182.658.658,0,0,0,.426-.182.88.88,0,0,0,.122-.426v-4.868a6.564,6.564,0,0,0,1.4-.974v-.974a1.329,1.329,0,0,0-.3-.183.971.971,0,0,0-.487.183,2.964,2.964,0,0,1-.608.487v-2.8H850.2c.122,0,.183-.061.243-.061v-1.1c-.061-.061-.122-.061-.243-.061h-1.156V1034.4a.582.582,0,0,0-.122-.426.658.658,0,0,0-.426-.182.6.6,0,0,0-.487.182.709.709,0,0,0-.122.426v2.373h-.852c.061-.609.122-1.035.122-1.339v-.365a.691.691,0,0,0-.183-.487c-.061-.061-.243-.061-.365-.122a.624.624,0,0,0-.609.609v.365a9.021,9.021,0,0,1-.791,4.077v.548a.658.658,0,0,0,.3.244.375.375,0,0,0,.426.061c.3-.122.608-.913.974-2.373h.974v3.529Zm2.556-3.286v1.1c-.061,0-.122-.061-.182-.122a.526.526,0,0,1-.183-.365.691.691,0,0,1,.183-.487C850.319,1038.291,850.38,1038.291,850.441,1038.23Z" transform="translate(-841.62 -982.056)" fill="#4d4d4d"/>
  </g>
</svg>
