<svg xmlns="http://www.w3.org/2000/svg" width="64.585" height="65.967" viewBox="0 0 64.585 65.967">
  <g id="good_helper_pink" transform="translate(-42 -36.276)">
    <g id="文字" transform="translate(42 90.073)">
      <path id="Path_114" data-name="Path 114" d="M828.624,817.211l.649.081h0l-.243.73-.122.609h3.245l.162.041.122.081.081.162h0l-.2,1.947h0l-.243,1.217-.446,1.176-.568,1.217-.771,1.176,2.6,1.136-1.014,1.258-2.758-1.258h0l-.487.446v-2.312h.041l.446-.649.365-.568.284-.608.284-.649.243-.568.122-.649.081-.568.081-.649h-1.947v-2.8Zm4.624,1.258v-1.3h8.884l1.176,1.1-3.975,2.15h0l-.446.284-.2.243h0v.122l.081.162.122.081.2.122h0l.446.649h3.489l-.73,1.3h-1.866l.2.811.081.73.081.568v.527h0l-.081.406-.162.446-.2.365-.284.365h0l-.365.365-.446.284-.446.243-.365.2h0l-.487.122-.446.081h-.487l-.527-.081h0l-.73-.041-.73-.243-.649-.2-.69-.284.649-1.46h0l.649.365.649.2h0l.568.162.527.081h.406l.284-.081h0l.527-.284.284-.284.2-.365.162-.527h0l.081-.568-.081-.568-.2-.609-.325-.649v-.081h-5.111v-1.3h4.178l-.365-.487-.487-.365h0l-.243-.284-.041-.162h0l.041-.2.243-.162,3.529-1.947Zm-8.478,6.288h0l-.284-.2-.162-.2v-.284l.162-.243h0l.406-.649.446-.852.446-1.014.487-1.3h-1.582v-1.379h2.028l.365-1.623,1.541.2v2.8h-.162l-.365,1.136-.446.933-.406.892-.446.73h0l-.081.122v.081l.081.162.2.04,1.623.811v2.312l-.162.162-.892.568-.933.527-1.014.487L824.04,827.8h0l.811-.324.852-.365,1.744-1.1Z" transform="translate(-824.04 -816.805)" fill="#e83598" fill-rule="evenodd"/>
      <path id="Path_115" data-name="Path 115" d="M894.429,822.268h3.083l.041.162v2.758h0l-.041.122-.243.081h-2.839v-.852h1.257v-.284h-1.257v-.811h1.257v-.284h0l-.081-.081h-1.176v-.811Zm0,3.489h3.448l.325.081.081.081.081.081v1.7h0l-.081.324-.122.2-.365.2-.446.162h0l-.73.122-.933.081h-1.257v-1.258l.406.041h.649l.406-.081h0l.365-.122.081-.162.081-.081v-.284h0l-.162-.081h-1.825v-1.014Zm0-3.651V820.93h.527l.365-.081h0l.2-.162.081-.122v-2.028h-1.176v-1.1h1.176v-.568h1.947v.568h1.542l-.446,1.1h-1.1v2.515h0l-.041.284-.243.243h0l-.365.2-.406.2h0l-.73.081-.933.081-.406-.041Zm0-2.109.04-.041h-.04Zm-4.746-2.474h.2l-.2.568h0v-.568Zm0,1.217h.487l-.284.568h-.2v-.568Zm0,1.177h.284l-.284.649h0v-.649Zm0,1.014h.406l-.041.852h.041l-.324.487h4.665v.811h-4.746v-2.15Zm4.746,4.462H890.7v.365h3.732v1.014H890.7v1.947h-1.014V824.54h4.746v.852Zm0,3.408v-1.258l-1.3-.122h0l.162,1.379Zm0-11.358v1.1h-3.976v-1.1Zm0,2.515V820l-1.217.69h0l-2.109-1.3,1.176-.811h0l1.014.608,1.136.771Zm0,.974h-.122l-.811-.162-1.014-.162h0v1.339l1.258.122.69.041V820.93Zm0,2.515v.811h-4.746v-.811Zm-11.48,3.326h-.081v1.663h-1.947V826h0l.041-.081.081-.081.284-.081h7.342v-.365h-6.612l-.2-.081v-2.88h0v-.162h5.517l.487-.487-7.3.2-.162-.771,3.854-.162-.081-.487h-3.489v-.649h3.57l-.081-.609h-3.894v-.568h3.975v-.649H880.6v-.568h3.732l-.081-.73h1.947l.081.73h3.407v.568h-3.489v.649h3.489v.568h-3.57l.081.609h3.489v.649h-3.57l.081.487,3.489-.122v2.15H883.72l-.081.081v.284h6.044v.811h-6.044v.284h6.044v4.178h-1.014v-1.947Z" transform="translate(-857.426 -816.711)" fill="#e83598" fill-rule="evenodd"/>
      <path id="Path_116" data-name="Path 116" d="M924.288,824.6V823.22h9.492l-.284-1.582h-8.478v-1.379h7.991l-1.1-1.582h0l-3.57.081-2.961.081-.2-1.339h0l8.316-.284h0l4.138-.284,2.961-.284.284,1.3h0l-2.434.2-3.651.325h-.487l.568.933.365.852h6.653l-.649,1.379h-5.639l.162.811.04.771h6.815l-.73,1.379h-6l-.081.974-.122.69-.243.69-.365.487h0l-.284.284-.365.284-.365.162-.324.162h0l-1.176.122H931.1l-1.582-.122-1.907-.324.162-1.42h0l1.1.2,1.014.2.771.081.69.081h0l.933-.162.649-.122h0l.122-.162.162-.122.284-.527.243-.649.122-.811Z" transform="translate(-878.039 -816.648)" fill="#e83598" fill-rule="evenodd"/>
    </g>
    <g id="圖" transform="translate(-114.908 -106.724)">
      <path id="Union_5" data-name="Union 5" d="M21.662,44.466v0h-.17l-.627-.115-.513-.285-.512-.456-.514-.513-.171-.569-.228-.627-.057-.627.057-.627.228-.57.171-.627.186-.156-.06-.06-.127.1-.57.342-.627.17-.627.115-.626-.115-.57-.17-.627-.342-.514-.4-.4-.514-.342-.513-.057-.627-.115-.569.115-.627.057-.627.342-.627.4-.513.228-.057-.342-.342-.114.228-.513.4-.57.285-.627.114-.627.115-.626-.115-.57-.114-.513-.285-.512-.4-.4-.514-.342-.627-.17-.627-.115-.569.115-.627.17-.627.342-.627.4-.513.114-.057-.228-.228-.114.228-.513.4-.569.285-.513.228H7.183l-.57-.228L6.1,29.757l-.512-.4-.456-.512-.285-.627-.172-.627v-1.2l.172-.627.285-.512.241-.272L3.99,23.6l-.912-1.027v-.057l-.854-1.14L1.6,20.237.969,18.983v-.057l-.4-1.2-.057-.058-.285-1.2v-.057L0,15.221V12.542l.228-1.368L.513,9.92H.57l.4-1.254V8.609l.627-1.2L2.223,6.27V6.214l.854-1.026L3.99,4.162V4.1h.057l1.026-.912L6.1,2.337h.057l1.2-.741h.058l1.14-.512,1.254-.4V.627L11.059.342,12.427.115,13.682,0h.057l1.311.115h.057l1.2.227h.057l1.311.285.057.057,1.2.4h.057l1.141.512,1.14.741,1.141.855h.057l1.026.912.941,1-.543.543.353.388.589-.554-.1-.114.117.1.357-.336,1.026-.912.969-.8,1.141-.627,1.254-.627,1.2-.4,1.254-.342,1.311-.172h2.565l.684.114.513.058,1.083.284.17.058,1.2.4,1.254.627,1.083.627,1.141.8,1.026.912.912,1.026.741,1.026.684,1.2.514,1.14.512,1.254.342,1.2.057,1.311.115,1.254-.115,1.311L47.771,17.1l-.342,1.311-.512,1.2L46.4,20.751l-.684,1.14-.741,1.141L44.066,24l-.535.565.193.29v.058l.057.057.057.627.115.627v.114l-.115.627-.057.627-.057.057v.057l-.285.57-.057.057v.057l-.4.457-.057.057-.058.057-.512.4-.057.057-.627.285h-.058l-.569.228H39.562l-.441-.161-.071-.238v-.057l-.058-.058-.284-.512H38.65l-.4-.514v-.014l.4.3.57.285.513.172h1.083l.57-.172.513-.285.457-.342.342-.456.285-.514.057-.57.114-.512-.114-.57-.057-.514-.285-.456-.342-.456L37.567,19.5l-.456-.342-.57-.285-.513-.17H34.945l-.513.17-.456.285-.456.342-.342.456-.058.058-.227.4-.171.57-.114.512.114.57.171.456.227.513.058.057.25.333-.308-.22-.114-.114H32.95l-.057-.057-.57-.285h-.057l-.037-.014.264.584.4.512-.4-.31v.025l.456.514v.057l-.456-.342-.513-.285-.514-.17h-1.14l-.513.17-.513.285-.457.342-.342.457-.171.284v0l-.115.228L28.1,25.6l-.057.569.057.57.114.513.115.17.114.285.4.4,4.275,4.333v.512l-4.5-4.5v-.057l-.285-.227L28.1,27.99h-.057l-.057-.057-.257-.129.086.129.4.456,4.789,4.846.514.4.342.171-.4-.513-.057-.057-.285-.285v-.512l.513.512.456.342.514.285.513.172h1.14l.513-.172.456-.285.4-.342.4-.456.285-.57.172-.456.057-.57-.057-.57-.172-.512-.285-.457-.4-.456-4.5-4.617,4.5,4.617h.057v.057l.514.4-.171-.228-.4-.512.513.4.057.057.512.285-.181.181.353.161h.057l.186.068.1.332.057.057v.057l.115.57V30.9l-.115.741V31.7l-.057.058-.171.512h-.058l-.284.627v.057H38.65l-.4.513v.057h-.057l-.514.4v.057h-.057l-.513.285v.057h-.058l-.626.228H34.945l-.627-.228h-.057l-.085-.051-.153-.274-.107.118.26.156.029.051.057.058v.114l.114.627.115.57v.17l-.115.57-.114.627v.057l-.057.057-.285.627v.057h-.057l-.4.513-.057.057-.285.228-.227.17-.057.057-.627.342h-.058l-.626.228H30.042l-.627-.228v-.057l-.285-.627h-.057v-.057l-.4-.512h-.057v-.058l-.285-.284-3.877-3.763-.627-.627-.057-.057-.514-.4-.057-.057-.332-.151.1.208.457.512L28.1,38.137l.512.4.57.285-.171.193.343.206h.057l.228.627V41.33l-.228.57v.057l-.285.627-.057.057-.4.514-.057.057-.285.227V42.3l.057-.115.285-.569.17-.513V40.019l-.17-.513-.285-.569-.057-.115-.285-.342L24.456,35l-1.2-1.2-.456-.342-.57-.285-.456-.172-.57-.114-.514.114-.569.172-.457.285-.456.342-.342.456-.285.457-.172.512v1.084l.172.512.285.57.342.456,4.846,4.789.4.342v0l.456.285.513.057.57.114.569-.114.513-.057.512-.285.457-.342.285-.342v1.14l-.228.228H27.99l-.57.342h-.114l-.627.115-.627.114h-.115l-.627-.114-.626-.115h-.115l-.114-.057v0l-.213-.153-.3.266-.627.285-.569.115-.627.114Zm7.069-6.67.456.4.514.285.513.172h1.14l.513-.172.569-.285.4-.342.284-.4.058-.057.284-.513.115-.569.057-.57-.057-.513-.115-.569-.227-.4-.115-.114v0l-.284-.342-4.5-4.5-.285-.285-.457-.342-.512-.285-.513-.17h-1.14l-.513.17-.456.285v0l-.4.342-.4.457-.284.456-.172.514-.057.512.057.627.228.456.227.57.4.457.4.4L28.332,37.4Zm-.57.627.014.009-.185-.238-1.406-1.373Zm5.78-4.578-.022-.039h-.056ZM21.662,32.161v0ZM12.541.912l-1.311.228-1.2.285-1.2.4-1.083.512-1.2.684-.969.8-.969.912L3.705,5.7l-.8.969-.57,1.083-.627,1.2-.4,1.2-.285,1.2L.854,12.6v2.509l.172,1.2.285,1.2.4,1.14.627,1.2.57,1.083.8,1.084.912,1.026,1.255,1.255L19.667,10.6l.085.087.372-.372,4.332,4.389v0l.171.115.4.4.569.228.513.227h1.14l.457-.17.456-.285.172-.114v0l.285-.285.342-.4.285-.569.17-.513V12.257l-.17-.514-.285-.456-.342-.457-.285-.342v0L24.467,6.283l-.24-.24h0L22.916,4.732,21.89,3.82l-1.083-.8-1.084-.684-1.083-.512-1.14-.4L16.19,1.141l-1.2-.228L13.682.855ZM37.624,16.589V6.841h4.219l.57-1.083H30.783V6.841h4.789v9.748h2.052Zm.57,11.743L33.52,23.543l-.092-.122.092.065v.057l4.731,4.789v.043ZM32.95,24.114l.171.172ZM7.069,16.361V5.416h5.016l1.026.114.969.228.855.285.8.4.513.514.4.626.228.627V9.748l-.228.57-.513.512-.569.4-.742.342-.8.17-.912.115-1.026.114H9.121v4.389Zm5.016-5.53.684-.057.741-.114.513-.228.4-.285.171-.342.227-.4V8.38l-.114-.4-.285-.4L14.08,7.3l-.456-.342-.742-.172-.8-.114h-.114l-.912-.115H9.121v4.275h2.964Zm12.37-5.7L24.428,5.1l.028-.028.267.29Z" transform="translate(164.908 143)" fill="#e83598"/>
    </g>
  </g>
</svg>
