<svg xmlns="http://www.w3.org/2000/svg" width="70.335" height="78.653" viewBox="0 0 70.335 78.653">
  <g id="happy_shopping" transform="translate(-645.84 -1051.846)">
    <path id="Union_10" data-name="Union 10" d="M-340.978,487a.728.728,0,0,1-.528-.175.6.6,0,0,1-.135-.454l.031-2.13-.014.013a16.6,16.6,0,0,1-2.594,1.721,9.113,9.113,0,0,1-1.183.538,2.546,2.546,0,0,1-.79.143.649.649,0,0,1-.514-.227.611.611,0,0,1-.161-.44.6.6,0,0,1,.276-.421,17.245,17.245,0,0,0,2.781-1.163q.767-.416,1.315-.732l-3.822-.053a.607.607,0,0,1-.424-.148.656.656,0,0,1-.136-.479.65.65,0,0,1,.148-.451.7.7,0,0,1,.427-.111l4.715.066,0-.219a.675.675,0,0,1,.135-.437.659.659,0,0,1,.545-.173q.389.005.475.135a.611.611,0,0,1,.175.494l0,.219,4.817.068a.694.694,0,0,1,.437.122.6.6,0,0,1,.123.455.771.771,0,0,1-.11.425.59.59,0,0,1-.467.186l-3.836-.053a25.322,25.322,0,0,0,4.1,2.279.5.5,0,0,1,.213.416.442.442,0,0,1-.25.37.86.86,0,0,1-.48.136,2.95,2.95,0,0,1-1.48-.486,29.162,29.162,0,0,1-3.093-2.251l-.031,2.208a.614.614,0,0,1-.148.449.651.651,0,0,1-.491.161Zm19.176-2.659a.523.523,0,0,1-.4-.3.733.733,0,0,1-.027-.337,15.4,15.4,0,0,0,.278-1.9.632.632,0,0,1,.063-.22.431.431,0,0,1,.191-.15.927.927,0,0,1,.462-.064.44.44,0,0,1,.344.293,1.261,1.261,0,0,1,.059.45,11.553,11.553,0,0,1-.2,1.775.542.542,0,0,1-.267.4.869.869,0,0,1-.332.071A.678.678,0,0,1-321.8,484.34Zm-38.641-.611a.387.387,0,0,1-.173-.247,11.7,11.7,0,0,1-.417-3.254c0-.039-.011-.061-.026-.068s-.044,0-.085.033a10.443,10.443,0,0,1-2.608,1.823.5.5,0,0,1-.431.047.667.667,0,0,1-.361-.457.036.036,0,0,1,0-.029.644.644,0,0,1-.338-.066l-4.211-1.876a.766.766,0,0,1-.439-1.143l.894-2.006a1.346,1.346,0,0,1-.478-.07.586.586,0,0,1-.3-.346.644.644,0,0,1,.012-.4.44.44,0,0,1,.261-.237,12.456,12.456,0,0,0,2.568-1.8.615.615,0,0,1,.16-.042l-.685-.3c-.378-.169-.489-.426-.335-.772l.541-1.215a.572.572,0,0,1,.866-.293l1.511.673a.572.572,0,0,1,.348.833l-.542,1.216a.5.5,0,0,1-.749.288l-.485-.216a1.679,1.679,0,0,1,.129.155.535.535,0,0,1,.037.427.666.666,0,0,1-.225.254.532.532,0,0,0-.078.077l1.192.531c.084-.1.177-.218.28-.341a.678.678,0,0,1,.713-.079.822.822,0,0,1,.378.3.384.384,0,0,1,.059.407,2.953,2.953,0,0,1-.214.259l1.357.6a.5.5,0,0,1,.282.225.458.458,0,0,1-.047.389.45.45,0,0,1-.191.24.418.418,0,0,1-.422,0l-1.558-.693-.252.567,1.273.566c.158.071.247.144.271.22a.462.462,0,0,1-.047.389.442.442,0,0,1-.193.239.411.411,0,0,1-.4-.01l-1.273-.568-.258.578,1.215.542c.166.075.264.15.294.229a.5.5,0,0,1-.053.373.554.554,0,0,1-.2.264.447.447,0,0,1-.411-.029l-1.216-.54-.273.612,1.321.59a.474.474,0,0,1,.272.247,10.4,10.4,0,0,0,2.337-1.5,5.876,5.876,0,0,0,1.3-1.812l.626-1.4a.575.575,0,0,1,.319-.338.746.746,0,0,1,.477.071.853.853,0,0,1,.414.312.54.54,0,0,1-.043.476l-.593,1.334a5.513,5.513,0,0,0-.55,1.931,11.756,11.756,0,0,0,.442,3.04.549.549,0,0,1,.005.5.639.639,0,0,1-.355.351.584.584,0,0,1-.247.052A.955.955,0,0,1-360.442,483.729Zm-7.833-5.016a.126.126,0,0,0,.073.188l1.286.572.273-.615-1.416-.629Zm.589-1.321,1.417.631.257-.578-1.416-.632Zm.632-1.416,1.415.63.253-.565-1.417-.631Zm.83-3.928-.21.473c-.029.063.008.117.112.163l.779.346c.077.037.131.022.159-.041l.211-.472c.045-.1.009-.18-.11-.233l-.766-.341a.122.122,0,0,0-.047-.01C-366.147,471.932-366.189,471.97-366.224,472.048Zm47.273,10.938a13.254,13.254,0,0,1-1.4-1.267.476.476,0,0,1-.194-.2.358.358,0,0,1,.006-.325.646.646,0,0,1,.342-.32.736.736,0,0,1,.59.077,11.314,11.314,0,0,0,1.3,1.155.269.269,0,0,1,.175.152.494.494,0,0,1-.044.436.756.756,0,0,1-.374.279.536.536,0,0,1-.212.043A.621.621,0,0,1-318.951,482.986Zm1.49-.725-.669-1.624-.274.113a.55.55,0,0,1-.42.033.656.656,0,0,1-.274-.361.646.646,0,0,1-.05-.428.629.629,0,0,1,.331-.247l.275-.113-.949-2.3q-.255-.621.425-.9l1.577-.651-.2-.477-2.306.95a.554.554,0,0,1-.407.027.581.581,0,0,1-.287-.356.577.577,0,0,1-.032-.42.589.589,0,0,1,.314-.254l1.1-.454-.2-.478-.7.291a.612.612,0,0,1-.414.045c-.107-.031-.2-.138-.273-.321a.534.534,0,0,1-.028-.408.581.581,0,0,1,.321-.272l.7-.29-.216-.525-.943.388a.59.59,0,0,1-.415.046.534.534,0,0,1-.259-.328.561.561,0,0,1-.04-.4.581.581,0,0,1,.325-.26l.944-.389-.083-.2a.612.612,0,0,1,0-.435.533.533,0,0,1,.326-.26.678.678,0,0,1,.462-.064.5.5,0,0,1,.32.3l.084.2,1.326-.545-.085-.2a.615.615,0,0,1,0-.436.534.534,0,0,1,.327-.259.675.675,0,0,1,.463-.064.519.519,0,0,1,.307.305l.084.2.872-.359a.552.552,0,0,1,.415-.045c.094.027.179.131.254.314a.584.584,0,0,1,.055.368.552.552,0,0,1-.336.306l-.872.358.217.527.728-.3a.548.548,0,0,1,.419-.032c.1.027.18.131.256.313a.592.592,0,0,1,.054.369.575.575,0,0,1-.335.306l-.729.3.2.478,1.051-.434a.613.613,0,0,1,.427-.049.576.576,0,0,1,.248.33.707.707,0,0,1,.068.4.5.5,0,0,1-.33.319l-2.233.918.2.478,1.48-.609q.752-.311,1.008.31l.949,2.3.251-.1a.582.582,0,0,1,.414-.045c.094.026.181.135.26.325a.684.684,0,0,1,.064.394.533.533,0,0,1-.326.329l-.25.1.546,1.326a.781.781,0,0,1,.05.637,1.116,1.116,0,0,1-.552.421l-.454.188a3.413,3.413,0,0,1-.428.147.847.847,0,0,1-.514-.024.677.677,0,0,1-.293-.341.875.875,0,0,1-.072-.278.462.462,0,0,1,.148-.353,1.279,1.279,0,0,1,.381-.227l.358-.148c.056-.023.069-.07.04-.142l-.31-.752-3.427,1.411.669,1.624c.118.287-.019.511-.408.671a.841.841,0,0,1-.314.073A.4.4,0,0,1-317.462,482.26Zm-.208-3.657.236.572,1.147-.473-.236-.573Zm2.294-.945.236.572,1.134-.466-.236-.574Zm-2.815-.461c-.033.013-.038.048-.014.1l.183.441,1.146-.472-.216-.526Zm3.294-1.358-1.049.433.215.526,1.135-.466-.2-.478a.045.045,0,0,0-.045-.028A.167.167,0,0,0-314.9,475.84Zm-3.5-1.981.2.478,1.325-.546-.2-.478Zm-.609-1.481.215.525,1.326-.544-.216-.527Zm-24.637,9.109c-.006-.1-.018-.207-.033-.31a4.072,4.072,0,0,1-.675.21,7.824,7.824,0,0,1-1.939.2.629.629,0,0,1-.452-.134.6.6,0,0,1-.16-.481.766.766,0,0,1,.108-.4.783.783,0,0,1,.571-.159h.052c.349-.434.675-.872.973-1.316a17.689,17.689,0,0,0-1.284-1.439.611.611,0,0,1-.265-.469.42.42,0,0,1,.159-.307.414.414,0,0,1,.311-.151,1.283,1.283,0,0,1,.427.1,7.693,7.693,0,0,0,.834-1.512q.185-.319.418-.318a.938.938,0,0,1,.4.122.473.473,0,0,1,.214.4,1.435,1.435,0,0,1-.15.554,9.424,9.424,0,0,1-.964,1.5,5.353,5.353,0,0,1,.469.613,15.473,15.473,0,0,0,.8-1.616.574.574,0,0,1,.508-.316.832.832,0,0,1,.438.11.452.452,0,0,1,.239.416,1.751,1.751,0,0,1-.214.591,14.6,14.6,0,0,1-2.006,3,9.84,9.84,0,0,0,1.074-.115,3.019,3.019,0,0,0-.1-.478.609.609,0,0,0-.05-.157.373.373,0,0,1,.419-.408.551.551,0,0,1,.563.305,7.178,7.178,0,0,1,.3,1.981c0,.266-.177.4-.522.407A.435.435,0,0,1-343.64,481.487Zm7.7,0c-.016-.121-.027-.232-.034-.337a4.6,4.6,0,0,1-.883.311,7.266,7.266,0,0,1-2.147.28.575.575,0,0,1-.412-.122.467.467,0,0,1-.112-.194.945.945,0,0,1-.492.109l-1.77-.025a.73.73,0,0,1-.8-.85l.054-3.823a.719.719,0,0,1,.825-.8l.232,0q.084-.386.192-.837a.569.569,0,0,1,.573-.289.847.847,0,0,1,.4.083.4.4,0,0,1,.164.338q-.015.142-.14.721l.349.006a.723.723,0,0,1,.816.786.318.318,0,0,1,.193-.062,1.338,1.338,0,0,1,.477.11,7.411,7.411,0,0,0,1-1.471.535.535,0,0,1,.469-.318.968.968,0,0,1,.425.136.515.515,0,0,1,.239.442,1.069,1.069,0,0,1-.2.54,9.5,9.5,0,0,1-1.13,1.418,8.119,8.119,0,0,1,.559.641,12.946,12.946,0,0,0,.755-1.359.576.576,0,0,1,.521-.29.927.927,0,0,1,.438.1.458.458,0,0,1,.213.429,1.828,1.828,0,0,1-.2.539,14.511,14.511,0,0,1-2.236,2.9,7.658,7.658,0,0,0,1.49-.315,3.548,3.548,0,0,0-.159-.609.382.382,0,0,0-.061-.169c0-.258.147-.393.431-.408a.557.557,0,0,1,.563.332,6.375,6.375,0,0,1,.385,2.072c0,.258-.178.389-.523.392A.418.418,0,0,1-335.941,481.49Zm-3.244-.808a.642.642,0,0,1,.181-.022,16.17,16.17,0,0,0,1.273-1.467,15.119,15.119,0,0,0-1.413-1.466Zm-2.319-.4c0,.137.062.206.191.209l.788.01a.182.182,0,0,0,.209-.2l.015-1.085-1.188-.015Zm.042-3.01-.013.891,1.188.017.013-.891c0-.13-.067-.2-.2-.2l-.788-.013h0A.171.171,0,0,0-341.462,477.267Zm18.28,3.55-2.5-6.067a.775.775,0,0,1,.462-1.153l2.054-.846a.787.787,0,0,1,1.163.484l2.5,6.067a.776.776,0,0,1-.495,1.138l-2.054.847a1.132,1.132,0,0,1-.426.1A.76.76,0,0,1-323.182,480.817Zm.509-1.886.374.906a.222.222,0,0,0,.324.147l1-.412a.236.236,0,0,0,.152-.344l-.374-.907Zm-.866-2.1.453,1.1,1.48-.609-.452-1.1Zm.3-2.764-1,.414c-.151.061-.193.176-.124.344l.413,1,1.481-.609-.413-1a.24.24,0,0,0-.221-.178A.355.355,0,0,0-323.239,474.065Zm-35.1,3.927a.679.679,0,0,1-.386-.369.334.334,0,0,1,.009-.307,2.119,2.119,0,0,1,.221-.34,14.694,14.694,0,0,0,1.2-1.458c.014-.031-.01-.061-.074-.088l-1.817-.81q-.921,1.115-1.63,1.819a.522.522,0,0,1-.592.061.8.8,0,0,1-.333-.333.5.5,0,0,1,.024-.37,2.529,2.529,0,0,1,.287-.424,32.009,32.009,0,0,0,2.815-3.5.462.462,0,0,1,.577-.152.892.892,0,0,1,.377.294.509.509,0,0,1,.005.5,7.9,7.9,0,0,1-.7,1.06c-.022.027-.042.051-.061.071l2.006.893a1.019,1.019,0,0,1,.479.383.571.571,0,0,1,0,.579,2.691,2.691,0,0,1-.236.4,11.7,11.7,0,0,1-1.576,2.012.65.65,0,0,1-.225.125.4.4,0,0,1-.1.013A.671.671,0,0,1-358.339,477.992Zm-3.96-2.569-1.7-.756a.519.519,0,0,1-.323-.766l.541-1.216a.565.565,0,0,1,.853-.3l1.558.692q.607.286.361.84l-.541,1.216a.5.5,0,0,1-.457.359A.735.735,0,0,1-362.3,475.423Zm-.8-1.982-.21.473c-.028.063,0,.114.1.157l.826.368c.078.034.131.02.16-.043l.21-.47c.046-.1.005-.183-.121-.238l-.8-.357a.1.1,0,0,0-.038-.009C-363.021,473.321-363.062,473.361-363.1,473.441Zm.828-.876a.6.6,0,0,1-.362-.331.5.5,0,0,1,.032-.452l.085-.189-1.462-.652-.085.19a.6.6,0,0,1-.292.337.671.671,0,0,1-.51-.059.649.649,0,0,1-.374-.336.527.527,0,0,1,.044-.447l.084-.188-.944-.42a.594.594,0,0,1-.306-.264.488.488,0,0,1,.045-.419.578.578,0,0,1,.28-.314.6.6,0,0,1,.4.052l.944.419.058-.129a.616.616,0,0,1,.292-.337.648.648,0,0,1,.506.071c.229.1.352.193.372.278a.556.556,0,0,1-.036.492l-.058.13,1.462.652.059-.13a.581.581,0,0,1,.3-.332.611.611,0,0,1,.494.065c.229.1.353.2.371.278a.537.537,0,0,1-.023.5l-.058.129.979.436a.614.614,0,0,1,.331.275.579.579,0,0,1-.068.408.6.6,0,0,1-.23.294.531.531,0,0,1-.453-.032l-.979-.436-.084.188a.552.552,0,0,1-.3.331.445.445,0,0,1-.163.029A.872.872,0,0,1-362.27,472.566Zm13.277-8.753a1.064,1.064,0,0,1-.138-1.5,1.064,1.064,0,0,1,1.5-.138,9.852,9.852,0,0,0,6.288,2.271,9.742,9.742,0,0,0,6.067-2.092,1.062,1.062,0,0,1,1.492.181,1.062,1.062,0,0,1-.18,1.493,11.851,11.851,0,0,1-7.379,2.545A11.987,11.987,0,0,1-348.993,463.812Zm23.492.049a3.79,3.79,0,0,1-3.766-3.812,3.789,3.789,0,0,1,3.811-3.767,3.79,3.79,0,0,1,3.767,3.812,3.791,3.791,0,0,1-3.791,3.767Zm-30.559-.139a3.789,3.789,0,0,1-3.767-3.812,3.789,3.789,0,0,1,3.811-3.766,3.789,3.789,0,0,1,3.767,3.811,3.789,3.789,0,0,1-3.788,3.767Zm-3.161-10.261a6.028,6.028,0,0,1-5.833-6.247,5.907,5.907,0,0,1,4.5-5.858c-2.084-6.589-4.3-13.14-5.984-17.7-.8-2.156-1.494-3.806-1.91-4.792-.141-.334-.25-.593-.321-.771-.442-1.105-1.7-3.823-3.8-5.16a5.459,5.459,0,0,0-2.807-.868c-.438-.012-.872-.018-1.267-.022a1.627,1.627,0,0,1-1.233.563,1.63,1.63,0,0,1-1.631-1.631,1.631,1.631,0,0,1,1.631-1.631,1.627,1.627,0,0,1,1.24.571c.41,0,.861.011,1.316.023a7.549,7.549,0,0,1,3.89,1.2c2.633,1.669,4.122,4.87,4.641,6.168.068.169.171.415.305.732.424,1,1.132,2.68,1.946,4.882,1.721,4.654,3.986,11.363,6.106,18.076h37.575c.041,0,4.217-.152,5.279-5.6.517-2.656,3.267-17.627,3.3-17.779a1.063,1.063,0,0,1,1.237-.854A1.063,1.063,0,0,1-310.2,418c-.027.151-2.779,15.134-3.3,17.8-1.17,6.009-5.715,7.325-7.367,7.325h-37.575c-.162.006-4.486.2-4.486,4.092a3.953,3.953,0,0,0,3.766,4.121l39.514,0a1.063,1.063,0,0,1,1.063,1.064,1.063,1.063,0,0,1-1.063,1.064Zm32.244-2.511a1.714,1.714,0,0,1-.537-.2.824.824,0,0,1-.305-.311.843.843,0,0,1-.094-.4.924.924,0,0,1,.034-.257.992.992,0,0,1,.1-.234,1.231,1.231,0,0,1,.164-.212,1.782,1.782,0,0,1,.224-.2.683.683,0,0,1-.27-.255.67.67,0,0,1-.1-.351.9.9,0,0,1,.109-.437,1.43,1.43,0,0,1,.285-.355,1.064,1.064,0,0,1-.228-.341,1.25,1.25,0,0,1-.086-.5,1.357,1.357,0,0,1,.113-.567,1.187,1.187,0,0,1,.31-.423,1.355,1.355,0,0,1,.475-.264,1.92,1.92,0,0,1,.609-.092,2.406,2.406,0,0,1,.328.021,1.985,1.985,0,0,1,.29.057h1.151c.046,0,.083.03.112.089a.754.754,0,0,1,.042.3.74.74,0,0,1-.043.288c-.032.063-.068.094-.111.094h-.426a.593.593,0,0,1,.127.221.851.851,0,0,1,.039.258,1.416,1.416,0,0,1-.105.563,1.13,1.13,0,0,1-.3.415,1.337,1.337,0,0,1-.476.257,2.075,2.075,0,0,1-.619.086,1.26,1.26,0,0,1-.333-.042.816.816,0,0,1-.245-.1.675.675,0,0,0-.087.126.35.35,0,0,0-.039.162.227.227,0,0,0,.1.194.5.5,0,0,0,.291.083l.882.033a2.2,2.2,0,0,1,.55.087,1.191,1.191,0,0,1,.407.211.9.9,0,0,1,.252.328,1.033,1.033,0,0,1,.087.435,1.126,1.126,0,0,1-.118.506,1.146,1.146,0,0,1-.353.413,1.835,1.835,0,0,1-.592.276,3.042,3.042,0,0,1-.831.1A3.69,3.69,0,0,1-326.977,450.95Zm.215-1.429a.888.888,0,0,0-.1.136.418.418,0,0,0-.051.126.731.731,0,0,0-.012.127.335.335,0,0,0,.205.309,1.305,1.305,0,0,0,.58.1,1.475,1.475,0,0,0,.391-.045.8.8,0,0,0,.256-.125.441.441,0,0,0,.138-.173.508.508,0,0,0,.041-.2.319.319,0,0,0-.147-.281.768.768,0,0,0-.4-.105l-.728-.021A1.109,1.109,0,0,0-326.762,449.521Zm.319-3.2a.524.524,0,0,0-.189.138.557.557,0,0,0-.111.2.768.768,0,0,0-.037.241.587.587,0,0,0,.162.437.614.614,0,0,0,.451.16.688.688,0,0,0,.269-.049.515.515,0,0,0,.189-.135.581.581,0,0,0,.113-.2.724.724,0,0,0,.04-.233.62.62,0,0,0-.163-.455.628.628,0,0,0-.46-.163A.626.626,0,0,0-326.444,446.319ZM-338.476,451a.747.747,0,0,1-.158-.034.187.187,0,0,1-.083-.055.121.121,0,0,1-.024-.074v-5.063a.121.121,0,0,1,.021-.072.145.145,0,0,1,.071-.05.52.52,0,0,1,.134-.031,1.868,1.868,0,0,1,.209-.01,1.885,1.885,0,0,1,.206.01.521.521,0,0,1,.133.031.145.145,0,0,1,.071.05.121.121,0,0,1,.021.072v.427a3.447,3.447,0,0,1,.311-.287,1.776,1.776,0,0,1,.311-.207,1.417,1.417,0,0,1,.327-.124,1.54,1.54,0,0,1,.359-.041,1.38,1.38,0,0,1,.68.158,1.276,1.276,0,0,1,.456.428,1.914,1.914,0,0,1,.258.634,3.542,3.542,0,0,1,.081.773,3.341,3.341,0,0,1-.1.872,1.956,1.956,0,0,1-.3.66,1.341,1.341,0,0,1-.5.419,1.51,1.51,0,0,1-.679.147,1.373,1.373,0,0,1-.291-.031,1.1,1.1,0,0,1-.257-.095,1.478,1.478,0,0,1-.246-.157,3.04,3.04,0,0,1-.252-.219v1.706a.121.121,0,0,1-.024.074.187.187,0,0,1-.083.055.746.746,0,0,1-.158.034,2.055,2.055,0,0,1-.247.013A2.056,2.056,0,0,1-338.476,451Zm1.409-4.554a.755.755,0,0,0-.2.1,1.374,1.374,0,0,0-.213.179,2.466,2.466,0,0,0-.232.273v1.194a2.319,2.319,0,0,0,.411.42.654.654,0,0,0,.406.148.56.56,0,0,0,.338-.1.8.8,0,0,0,.231-.266,1.383,1.383,0,0,0,.131-.372,2.092,2.092,0,0,0,.042-.415,2.837,2.837,0,0,0-.034-.445,1.294,1.294,0,0,0-.119-.381.711.711,0,0,0-.219-.266.565.565,0,0,0-.339-.1A.663.663,0,0,0-337.067,446.449ZM-343.025,451a.747.747,0,0,1-.158-.034.187.187,0,0,1-.083-.055.122.122,0,0,1-.025-.074v-5.063a.122.122,0,0,1,.022-.072.146.146,0,0,1,.07-.05.538.538,0,0,1,.135-.031,1.862,1.862,0,0,1,.208-.01,1.891,1.891,0,0,1,.207.01.541.541,0,0,1,.133.031.149.149,0,0,1,.071.05.128.128,0,0,1,.021.072v.427a3.447,3.447,0,0,1,.311-.287,1.8,1.8,0,0,1,.31-.207,1.423,1.423,0,0,1,.328-.124,1.534,1.534,0,0,1,.359-.041,1.374,1.374,0,0,1,.68.158,1.272,1.272,0,0,1,.457.428,1.933,1.933,0,0,1,.258.634,3.542,3.542,0,0,1,.081.773,3.379,3.379,0,0,1-.1.872,1.956,1.956,0,0,1-.3.66,1.343,1.343,0,0,1-.5.419,1.5,1.5,0,0,1-.678.147,1.373,1.373,0,0,1-.291-.031,1.089,1.089,0,0,1-.257-.095,1.478,1.478,0,0,1-.246-.157,2.9,2.9,0,0,1-.252-.219v1.706a.121.121,0,0,1-.024.074.191.191,0,0,1-.084.055.737.737,0,0,1-.157.034,2.055,2.055,0,0,1-.247.013A2.056,2.056,0,0,1-343.025,451Zm1.408-4.554a.768.768,0,0,0-.2.1,1.414,1.414,0,0,0-.212.179,2.374,2.374,0,0,0-.232.273v1.194a2.319,2.319,0,0,0,.411.42.652.652,0,0,0,.406.148.562.562,0,0,0,.338-.1.791.791,0,0,0,.23-.266,1.353,1.353,0,0,0,.132-.372,2.092,2.092,0,0,0,.042-.415,2.837,2.837,0,0,0-.034-.445,1.294,1.294,0,0,0-.119-.381.713.713,0,0,0-.22-.266.56.56,0,0,0-.338-.1A.673.673,0,0,0-341.618,446.449Zm-5.394,3.05a1.52,1.52,0,0,1-.593-.39,1.61,1.61,0,0,1-.35-.63,2.945,2.945,0,0,1-.113-.855,2.732,2.732,0,0,1,.124-.846,1.777,1.777,0,0,1,.372-.66,1.677,1.677,0,0,1,.619-.424,2.31,2.31,0,0,1,.872-.151,2.414,2.414,0,0,1,.845.133,1.469,1.469,0,0,1,.591.388,1.608,1.608,0,0,1,.348.63,2.96,2.96,0,0,1,.113.858,2.784,2.784,0,0,1-.122.846,1.782,1.782,0,0,1-.37.657,1.632,1.632,0,0,1-.622.427,2.341,2.341,0,0,1-.874.151A2.378,2.378,0,0,1-347.011,449.5Zm.5-3.063a.732.732,0,0,0-.281.244,1.2,1.2,0,0,0-.165.386,2.217,2.217,0,0,0-.054.515,2.552,2.552,0,0,0,.044.493,1.193,1.193,0,0,0,.145.392.684.684,0,0,0,.27.258.893.893,0,0,0,.422.091.918.918,0,0,0,.4-.083.72.72,0,0,0,.28-.242,1.1,1.1,0,0,0,.163-.383,2.284,2.284,0,0,0,.052-.516,2.616,2.616,0,0,0-.042-.492,1.165,1.165,0,0,0-.143-.392.725.725,0,0,0-.272-.26.864.864,0,0,0-.424-.094A.909.909,0,0,0-346.515,446.436Zm-8.692,3.167a2.355,2.355,0,0,1-.33-.078,1.646,1.646,0,0,1-.244-.1.589.589,0,0,1-.142-.092.273.273,0,0,1-.069-.133,1.118,1.118,0,0,1-.025-.27,1.542,1.542,0,0,1,.009-.19.445.445,0,0,1,.023-.113.1.1,0,0,1,.041-.057.122.122,0,0,1,.06-.014.289.289,0,0,1,.132.051c.059.033.131.07.218.112a2.627,2.627,0,0,0,.3.114,1.352,1.352,0,0,0,.393.052.9.9,0,0,0,.246-.03.585.585,0,0,0,.186-.081.35.35,0,0,0,.121-.133.427.427,0,0,0,.04-.187.307.307,0,0,0-.076-.21.675.675,0,0,0-.2-.152,2.372,2.372,0,0,0-.281-.121c-.1-.038-.211-.081-.321-.126a2.957,2.957,0,0,1-.321-.159,1.223,1.223,0,0,1-.28-.219,1,1,0,0,1-.2-.314,1.159,1.159,0,0,1-.075-.438,1.107,1.107,0,0,1,.1-.478,1.035,1.035,0,0,1,.293-.372,1.388,1.388,0,0,1,.464-.239,2.044,2.044,0,0,1,.616-.086,2.113,2.113,0,0,1,.332.026,2.245,2.245,0,0,1,.29.06,1.321,1.321,0,0,1,.22.079.674.674,0,0,1,.129.073.206.206,0,0,1,.054.061.3.3,0,0,1,.025.073c0,.029.01.064.013.106a1.51,1.51,0,0,1,.006.156c0,.074,0,.133-.006.179a.464.464,0,0,1-.02.11.1.1,0,0,1-.039.055.115.115,0,0,1-.057.013.271.271,0,0,1-.114-.042,2.12,2.12,0,0,0-.193-.091,2.17,2.17,0,0,0-.269-.092,1.265,1.265,0,0,0-.346-.042.9.9,0,0,0-.24.028.45.45,0,0,0-.167.082.325.325,0,0,0-.1.123.354.354,0,0,0-.032.153.306.306,0,0,0,.077.212.712.712,0,0,0,.2.15,2.209,2.209,0,0,0,.286.121c.107.039.216.079.326.124a2.686,2.686,0,0,1,.325.157,1.2,1.2,0,0,1,.286.22,1.046,1.046,0,0,1,.2.31,1.109,1.109,0,0,1,.077.429,1.23,1.23,0,0,1-.115.544,1.085,1.085,0,0,1-.328.393,1.464,1.464,0,0,1-.5.239,2.38,2.38,0,0,1-.625.079A2.57,2.57,0,0,1-355.208,449.6Zm-2.776-.139a.687.687,0,0,1-.13-.486.73.73,0,0,1,.132-.512.678.678,0,0,1,.478-.13.664.664,0,0,1,.467.128.693.693,0,0,1,.13.49.724.724,0,0,1-.131.508.671.671,0,0,1-.474.13A.674.674,0,0,1-357.984,449.465Zm28.627.09a.729.729,0,0,1-.158-.031.187.187,0,0,1-.081-.05.111.111,0,0,1-.023-.071v-2.069a1.769,1.769,0,0,0-.039-.414.818.818,0,0,0-.112-.258.5.5,0,0,0-.188-.167.6.6,0,0,0-.271-.059.675.675,0,0,0-.394.143,2.125,2.125,0,0,0-.415.413V449.4a.107.107,0,0,1-.024.071.184.184,0,0,1-.083.05.753.753,0,0,1-.158.031c-.065.005-.147.01-.247.01s-.182,0-.247-.01a.755.755,0,0,1-.157-.031.179.179,0,0,1-.083-.05.107.107,0,0,1-.024-.071v-3.625a.121.121,0,0,1,.021-.072.144.144,0,0,1,.072-.05.566.566,0,0,1,.136-.031,1.921,1.921,0,0,1,.21-.01,2.024,2.024,0,0,1,.216.01.48.48,0,0,1,.131.031.157.157,0,0,1,.068.05.127.127,0,0,1,.02.072v.418a2.336,2.336,0,0,1,.612-.488,1.4,1.4,0,0,1,.649-.163,1.42,1.42,0,0,1,.623.123,1.092,1.092,0,0,1,.411.33,1.358,1.358,0,0,1,.225.49,2.876,2.876,0,0,1,.069.676V449.4a.112.112,0,0,1-.024.071.182.182,0,0,1-.081.05.718.718,0,0,1-.157.031c-.067.005-.149.01-.247.01S-329.29,449.56-329.357,449.555Zm-4.568,0a.727.727,0,0,1-.158-.031.184.184,0,0,1-.083-.05.112.112,0,0,1-.024-.071v-3.618a.112.112,0,0,1,.024-.071.193.193,0,0,1,.083-.052.807.807,0,0,1,.158-.036c.065-.006.148-.011.247-.011s.183,0,.247.011a.793.793,0,0,1,.158.036.193.193,0,0,1,.083.052.112.112,0,0,1,.024.071V449.4a.112.112,0,0,1-.024.071.184.184,0,0,1-.083.05.716.716,0,0,1-.158.031c-.065.006-.147.011-.247.011S-333.86,449.56-333.925,449.554Zm-15.769,0a.707.707,0,0,1-.157-.031.18.18,0,0,1-.082-.05.111.111,0,0,1-.023-.071v-2.069a1.769,1.769,0,0,0-.039-.414.817.817,0,0,0-.112-.258.512.512,0,0,0-.189-.167.6.6,0,0,0-.271-.059.675.675,0,0,0-.394.143,2.124,2.124,0,0,0-.414.413V449.4a.108.108,0,0,1-.025.071.184.184,0,0,1-.083.05.752.752,0,0,1-.158.031c-.065.005-.147.01-.247.01s-.183,0-.248-.01a.767.767,0,0,1-.157-.031.193.193,0,0,1-.084-.05.117.117,0,0,1-.024-.071v-5.344a.134.134,0,0,1,.024-.075.2.2,0,0,1,.084-.054.648.648,0,0,1,.157-.034,1.876,1.876,0,0,1,.248-.013,1.845,1.845,0,0,1,.247.013.637.637,0,0,1,.158.034.186.186,0,0,1,.083.054.123.123,0,0,1,.025.075v2a1.96,1.96,0,0,1,.537-.389,1.352,1.352,0,0,1,.572-.129,1.442,1.442,0,0,1,.624.123,1.093,1.093,0,0,1,.41.332,1.388,1.388,0,0,1,.225.494,2.939,2.939,0,0,1,.069.686V449.4a.112.112,0,0,1-.024.071.182.182,0,0,1-.081.05.719.719,0,0,1-.157.031c-.067.005-.148.01-.247.01S-349.628,449.56-349.694,449.555Zm15.547-4.576a.56.56,0,0,1-.119-.411.585.585,0,0,1,.123-.427.68.68,0,0,1,.469-.121.686.686,0,0,1,.464.116.56.56,0,0,1,.121.412.572.572,0,0,1-.125.427.689.689,0,0,1-.467.118A.7.7,0,0,1-334.148,444.979Zm6.983-4.845a8.9,8.9,0,0,1-6.13-11,8.9,8.9,0,0,1,11-6.131,8.9,8.9,0,0,1,6.13,11,8.906,8.906,0,0,1-8.559,6.471A8.914,8.914,0,0,1-327.164,440.134Zm1.436-12.609a5.929,5.929,0,0,0-1.876,3.3,5.824,5.824,0,0,0-.147,3.687,2.7,2.7,0,0,0,1.83,1.657,2.677,2.677,0,0,0,2.211-.267,3.235,3.235,0,0,0,1.4-1.984,3.157,3.157,0,0,0-.132-2.318,2.369,2.369,0,0,0-1.525-1.319,1.961,1.961,0,0,0-1.738.325,4.435,4.435,0,0,1,1.03-1.9,1.1,1.1,0,0,1,1.017-.238.9.9,0,0,1,.566.424,1.291,1.291,0,0,1,.088.843l1.639.267a2.831,2.831,0,0,0-.344-1.888,2.412,2.412,0,0,0-1.45-1.028,3.153,3.153,0,0,0-.867-.127A2.879,2.879,0,0,0-325.728,427.525Zm-32.631,8.936-2.9-7.405a3.3,3.3,0,0,1-.228-1.22,3.345,3.345,0,0,1,2.118-3.1l6.44-2.518a3.343,3.343,0,0,1,4.318,1.889l2.9,7.406a3.3,3.3,0,0,1,.227,1.219,3.347,3.347,0,0,1-2.118,3.1l-6.439,2.518a3.3,3.3,0,0,1-1.205.228A3.346,3.346,0,0,1-358.359,436.461Zm6.7-.994,1.855-.715-3.742-9.716-1.506.58q0,.031,0,.063a3.691,3.691,0,0,1-.573,1.935,5.741,5.741,0,0,1-1.23,1.508l.649,1.683a6.866,6.866,0,0,0,1.855-2.328Zm9.316-.637-8.042-18.449a1.572,1.572,0,0,1,1.617-2.191l20,2.261a1.572,1.572,0,0,1,1.088,2.5l-11.957,16.188a1.553,1.553,0,0,1-1.261.639A1.562,1.562,0,0,1-342.343,434.831Zm-.036-15.03h0l5.3.616a18.671,18.671,0,0,0-3.2,4.679,17.655,17.655,0,0,0-1.678,5.35l2.249.261a16.217,16.217,0,0,1,.977-3.825,18.032,18.032,0,0,1,2.033-3.927,14.9,14.9,0,0,1,1.977-2.4,1.359,1.359,0,0,0,.432-.838l.15-1.294-7.973-.925Zm16.943,14.969a1.105,1.105,0,0,1-.71-.693,2.082,2.082,0,0,1,0-1.4,1.8,1.8,0,0,1,.652-1.052,1.049,1.049,0,0,1,.909-.159,1.048,1.048,0,0,1,.7.637,2.114,2.114,0,0,1-.037,1.372,2.014,2.014,0,0,1-.65,1.134,1.007,1.007,0,0,1-.585.2A1.006,1.006,0,0,1-325.436,434.769Z" transform="translate(1025.856 643)" fill="#fff" stroke="rgba(0,0,0,0)" stroke-miterlimit="10" stroke-width="1"/>
  </g>
</svg>
