<svg id="house_color" xmlns="http://www.w3.org/2000/svg" width="93.24" height="31.026" viewBox="0 0 93.24 31.026">
  <path id="Path_176" data-name="Path 176" d="M375.126,720.79v-4.338h.175a1.313,1.313,0,0,1,.438.175,2.036,2.036,0,0,0,.131.394v2.541a4.143,4.143,0,0,1-.131.394.582.582,0,0,1-.307.131c.964.131,1.49.219,1.577.394a.812.812,0,0,1,.088.307.584.584,0,0,1-.219.263c-.044.044-.175.044-.307.044-.57-.131-1.008-.219-1.446-.307Zm0-4.644v-.613h.613a.31.31,0,0,0,.263-.263v-.088c-.044-.088-.088-.131-.088-.175a.332.332,0,0,0-.175-.088h-.613V714.3h1.052a.427.427,0,0,1,.394.175.707.707,0,0,1,.175.307v.789a.6.6,0,0,1-.57.57Zm0-2.147v-.613h.657a.892.892,0,0,1,.219.044.474.474,0,0,1,.044.263c.044.088,0,.131-.044.175-.088.088-.131.131-.219.131Zm0-1.052v-.613h1.052c.088.044.175.044.175.088a.335.335,0,0,1,.088.219c.044.088,0,.175-.088.175-.044.088-.088.131-.175.131Zm0-.613v.613h-2.147v.438h2.147V714h-2.541v-2.059a.622.622,0,0,1,.263.088.582.582,0,0,1,.131.307Zm0,1.972v.613h-.832v.613h.832v.613h-2.541v-.613h.92v-.613h-.92V714.3Zm0,2.147v4.338c-.219,0-.394-.044-.57-.044-.351-.088-.57-.131-.57-.131-.088-.088-.088-.175-.131-.307.044-.044.044-.131.088-.219h-1.358v-.57h2.191c.088,0,.175,0,.175-.044a.228.228,0,0,0,.088-.175v-.219h-2.454v-.526h2.454v-.526h-2.454V717.5h2.454v-.263c-.044-.088-.044-.131-.088-.131a.228.228,0,0,0-.175-.088h-2.191v-.57Zm-2.541-4.513V714H370v-.613h2.147v-.438H370v-.613h2.147a.4.4,0,0,1,.131-.307c.044-.088.131-.088.263-.088Zm0,2.366v.613h-.876v.613h.876v.613H370v-.613h.92v-.613H370V714.3Zm0,2.147v.57h-2.322c-.088.044-.131.044-.175.088a.216.216,0,0,0-.044.131v.263h2.541v.526h-2.541v.526h2.541v.526h-2.541v.219a.176.176,0,0,0,.219.219h2.322v.57h-1.358a.6.6,0,0,1,.131.175c0,.088-.044.175-.044.307a.917.917,0,0,1-.263.175,6.334,6.334,0,0,1-1.052.219v-.789c.175-.044.307-.044.438-.088H370v-3.637h2.585ZM370,712.333v.613h-1.008c-.131,0-.219-.044-.219-.131a.228.228,0,0,1-.088-.175c-.044-.088,0-.131.088-.219a.335.335,0,0,1,.219-.088Zm0,1.052V714h-.613a.286.286,0,0,1-.307-.307.29.29,0,0,1,.044-.263c.044-.044.131-.044.263-.044Zm0,.92v.613h-.613c-.131,0-.219,0-.263.044a.328.328,0,0,0-.044.219v.088a.453.453,0,0,0,.044.175c.044.088.131.088.263.088H370v.613h-1.183c-.175-.044-.307-.088-.351-.175a.707.707,0,0,1-.131-.394v-.789a.5.5,0,0,1,.131-.351.583.583,0,0,1,.351-.131H370Zm0,2.147v3.637h-.219a.535.535,0,0,1-.394-.131.476.476,0,0,1-.175-.394v-2.541a.6.6,0,0,1,.57-.57Zm0,3.724v.789a7.385,7.385,0,0,1-1.446.131.37.37,0,0,1-.307-.088.624.624,0,0,1-.088-.263c-.044-.088,0-.175.088-.263a.379.379,0,0,1,.263-.131,10.752,10.752,0,0,0,1.49-.175Zm-10.428.394v-.832a.678.678,0,0,0,.263.088,3.51,3.51,0,0,1,1.534.745.277.277,0,0,1-.044.307.308.308,0,0,1-.175.219.442.442,0,0,1-.394-.044c-.394-.175-.789-.351-1.183-.482Zm0-.964v-.789a.442.442,0,0,0,.131-.044.74.74,0,0,0,.088-.219v-.307h-.219v-.789h.219v-.613h-.219V716.1h.219v-.219c-.044-.131-.044-.219-.088-.219-.044-.044-.088-.088-.131-.088v-.745h.394a.581.581,0,0,1,.438.131.59.59,0,0,1,.219.394v3.593a.8.8,0,0,1-.219.482.562.562,0,0,1-.438.175Zm0-5.214v-.7h.57a.892.892,0,0,0,.219-.044.329.329,0,0,0,.044-.219v-.219a.454.454,0,0,0-.044-.175.335.335,0,0,0-.219-.088h-.57v-.7h1.008a.925.925,0,0,1,.438.175.66.66,0,0,1,.175.351v1.008a1.313,1.313,0,0,1-.175.438.628.628,0,0,1-.438.175Zm0-2.147v.7h-.876v.745h.876v.7h-2.629v-.7h.876v-.745h-.876v-.7Zm0,2.585v.745h-2.629v-.745Zm0,1.271v.745h-2.629V716.1Zm0,1.358v.789h-2.629v-.789Zm0,1.358v.789h-.482c.175.044.351.088.482.131v.832l-.789-.263c-.394-.088-.57-.175-.613-.263a.332.332,0,0,1-.044-.307c0-.088.044-.088.044-.131h-1.227v-.745h2.541C359.483,718.818,359.527,718.818,359.571,718.818Zm-2.629-6.572v.7h-.92v.745h.92v.7h-2.629v-.7h.876v-.745h-.876v-.7Zm0,2.585v.745h-2.629v-.745h2.629Zm0,1.271v.745h-2.629V716.1Zm0,1.358v.789h-2.629v-.789Zm0,1.4v.745h-1.4c.044.044.088.044.088.088a.36.36,0,0,1,.044.307l-.263.263a6.338,6.338,0,0,1-1.1.438v-.876c.175-.088.394-.132.57-.219h-.57v-.789c0,.044.044.044.088.044Zm-2.629-6.616v.7H353.7c-.131,0-.219,0-.219.044-.088.088-.088.131-.044.219v.219c0,.131,0,.175.044.219a.328.328,0,0,0,.219.044h.613v.7h-1.139a.66.66,0,0,1-.351-.175.778.778,0,0,1-.175-.438v-1.008a.431.431,0,0,1,.131-.351.555.555,0,0,1,.394-.175h1.139Zm0,2.585v.745c-.088,0-.088,0-.131.044a.322.322,0,0,0-.088.263v.219h.219v.745h-.219v.613h.219v.789h-.219v.307a.283.283,0,0,0,.088.219.161.161,0,0,0,.131.044v.789h-.526a.659.659,0,0,1-.351-.175.73.73,0,0,1-.175-.482v-3.593a.427.427,0,0,1,.175-.394.5.5,0,0,1,.351-.131Zm0,5v.876c-.438.131-.876.263-1.358.394a.26.26,0,0,1-.307-.044.585.585,0,0,1-.219-.263.65.65,0,0,1,.044-.307.369.369,0,0,1,.307-.175c.57-.175,1.1-.307,1.534-.482Zm-13.451.044v-.088c.044.044.044.088,0,.088Zm0-3.418c.044.088.044.175.131.263a.4.4,0,0,0,.307.131h2.322a4.012,4.012,0,0,1,.263,2.454.331.331,0,0,1-.044.175,1.275,1.275,0,0,1-.613.57,1.816,1.816,0,0,1-1.314-.132.377.377,0,0,0-.613.132.26.26,0,0,0-.044.307.278.278,0,0,0,.219.263,3,3,0,0,0,2.191.351,1.741,1.741,0,0,0,.964-1.1,4.284,4.284,0,0,0-.175-3.023h1.139c.088,0,.175-.088.263-.175a.379.379,0,0,0,.131-.263.341.341,0,0,0-.131-.307.322.322,0,0,0-.263-.088H344.06a2.436,2.436,0,0,0-.394-.745c-.044-.044-.088-.088-.088-.131a.557.557,0,0,1,.175-.307l1.665-1.534a1.018,1.018,0,0,0,.175-.438,1.556,1.556,0,0,0-.175-.394.708.708,0,0,0-.438-.175h-3.593c-.175,0-.307.044-.35.131a.4.4,0,0,0-.131.307.379.379,0,0,0,.131.263c.044.088.175.131.35.131h2.673c.088,0,.131.044.175.044,0,.088-.044.131-.044.175l-1.4,1.358a.426.426,0,0,0,0,.745,6.427,6.427,0,0,1,.394.57H341.3c-.175,0-.263,0-.307.088-.088.044-.088.131-.131.219Zm0-.131v0Zm0,3.461v-.044a.317.317,0,0,0-.175-.263l-1.052-.789a10.367,10.367,0,0,0,1.139-4.382v-.044a1.943,1.943,0,0,0-.088-.57,1.159,1.159,0,0,0-.263-.219c-.088-.088-.219-.088-.394-.088H338.89v.876h.745a.36.36,0,0,1,.307.044,8.4,8.4,0,0,1-.219,2.1c0,.044,0,.044-.044.088a5.2,5.2,0,0,1-.307,1.008c-.088.263-.219.482-.307.7l-.175-.131v1.709c.131-.131.219-.263.35-.394l.964.7a.473.473,0,0,0,.307.131.331.331,0,0,0,.307-.175c.044-.044.044-.088.044-.175v-.088Zm-1.972-6.441v-1.358c.088.044.088.088.131.175Q339.021,712.355,338.89,713.341Zm0-1.358v1.4h0v.876h-.175a16.969,16.969,0,0,1-.833,2.717.2.2,0,0,0,0,.219.743.743,0,0,0,.088.219l.92.657v1.709a5.59,5.59,0,0,1-1.446,1.271c-.131.088-.263.131-.351.044a1.159,1.159,0,0,1-.263-.219,1.089,1.089,0,0,1-.044-.35q0-.2.263-.263a4.621,4.621,0,0,0,1.534-1.4l-1.271-.964c-.175-.175-.307-.307-.307-.438a.757.757,0,0,1,.044-.438,14.758,14.758,0,0,0,.876-2.76h-.613a.369.369,0,0,1-.307-.175.379.379,0,0,1-.131-.263.4.4,0,0,1,.131-.307c.044-.088.131-.131.307-.131h.789a4.973,4.973,0,0,0,.131-1.1.88.88,0,0,1,.175-.35.484.484,0,0,1,.35,0c.044,0,.088.044.131.044Zm-17.483,6.748v-.745h2.979a.694.694,0,0,1,.526.219,1.1,1.1,0,0,1,.131.57,3.274,3.274,0,0,1-.438,1.84,1.477,1.477,0,0,1-.745.263,3.842,3.842,0,0,1-1.008,0,2.562,2.562,0,0,1-.92-.131.434.434,0,0,1-.307-.219.48.48,0,0,1,0-.351c.131-.263.307-.351.57-.219.92.175,1.534.175,1.753-.044q.131-.066.131-.394a1.263,1.263,0,0,0,0-.745.4.4,0,0,0-.219-.044Zm0-1.4v-2.147h2.76a.274.274,0,0,0,.351-.351h0c0-.131,0-.175-.044-.219a.193.193,0,0,0-.219-.044h-2.848v-.789h3.242c.263.044.438.088.526.219a.654.654,0,0,1,.131.438v.7a1.1,1.1,0,0,1-.175.57,1.309,1.309,0,0,1-.613.263H322.2v.613h3.067c.088,0,.175.044.263.044a.856.856,0,0,1,.044.307,1.551,1.551,0,0,1-.044.263.379.379,0,0,1-.263.131Zm0-4.162v-.833c.613-.044,1.183-.088,1.8-.088.964-.131,1.534-.175,1.621-.044a.265.265,0,0,1,.131.263c0,.088-.044.175-.044.263C324.781,712.947,323.642,713.078,321.407,713.166Zm-13.451,3.681a3.464,3.464,0,0,1,.263,2.454v.175a1.5,1.5,0,0,1-.613.57,1.94,1.94,0,0,1-1.358-.132c-.219-.175-.438-.131-.613.132a.261.261,0,0,0,0,.307c0,.131.044.219.219.263a2.95,2.95,0,0,0,2.191.351,1.869,1.869,0,0,0,.964-1.1,4.305,4.305,0,0,0-.219-3.023h1.139a.443.443,0,0,0,.307-.175.623.623,0,0,0,.088-.263.511.511,0,0,0-.088-.307.37.37,0,0,0-.307-.088h-1.49a4.161,4.161,0,0,0-.438-.745c0-.044-.044-.088-.088-.131a1.331,1.331,0,0,1,.219-.307l1.621-1.534a.669.669,0,0,0,.175-.438.787.787,0,0,0-.175-.394.611.611,0,0,0-.394-.175h-3.637a.5.5,0,0,0-.351.131.633.633,0,0,0-.088.307.622.622,0,0,0,.088.263.5.5,0,0,0,.351.131h2.717a.192.192,0,0,1,.131.044c0,.088,0,.131-.044.175l-1.4,1.358a.541.541,0,0,0-.175.351.535.535,0,0,0,.175.394,2.815,2.815,0,0,1,.438.57h-1.928a.37.37,0,0,0-.307.088.335.335,0,0,0-.088.219v.131a.623.623,0,0,0,.088.263.473.473,0,0,0,.307.131Zm13.451-4.513v.833c-.832.044-1.8.044-2.892.044-.088,0-.131.044-.175.131a.275.275,0,0,0,0,.263v.175h3.067v.789H318.34v.613h3.067v2.147h-.394a3.887,3.887,0,0,1-.088.657h.482v.745h-.7a4.789,4.789,0,0,1-1.1,1.709,3.645,3.645,0,0,1-.789.57,2.221,2.221,0,0,1-.394.088c-.088-.044-.131-.131-.219-.219a.419.419,0,0,1,.175-.57,3.7,3.7,0,0,0,1.84-2.979H318.91a.473.473,0,0,1-.307-.131c-.044-.044-.044-.131-.044-.263,0-.088.044-.175.044-.263a.37.37,0,0,1,.307-.088h2.454v-.613H318.34v.876a9.97,9.97,0,0,1-.745,3.681.671.671,0,0,1-.307.219c-.131-.044-.219-.044-.35-.088a.423.423,0,0,1-.044-.613,8.631,8.631,0,0,0,.57-3.2V713.21a1.267,1.267,0,0,1,.175-.613,1.208,1.208,0,0,1,.7-.131c1.052-.044,2.059-.088,3.067-.131Zm-16.168,7.536v0Zm0-3.549v0Zm0,3.461v.088a.228.228,0,0,1-.088.175.317.317,0,0,1-.263.175.583.583,0,0,1-.35-.131l-.92-.7a2.834,2.834,0,0,0-.351.394v-1.709l.131.131a3.493,3.493,0,0,0,.351-.7c.131-.351.219-.7.307-1.008.044-.044.044-.044.044-.088a7.315,7.315,0,0,0,.175-2.1.29.29,0,0,0-.263-.044h-.745v-.876h1.139a.472.472,0,0,1,.351.088.786.786,0,0,1,.307.219,2.142,2.142,0,0,1,.044.57v.044a9.772,9.772,0,0,1-1.1,4.382l1.052.789c.088.088.175.175.175.263v.044Zm-1.972-6.441v-1.358a.228.228,0,0,1,.088.175A4.528,4.528,0,0,1,303.267,713.341Zm0-1.358v1.4h0v.876h-.219a13.425,13.425,0,0,1-.832,2.717v.219a.4.4,0,0,0,.131.219l.92.657v1.709a7.514,7.514,0,0,1-1.446,1.271c-.175.088-.263.131-.351.044a1.159,1.159,0,0,1-.263-.219.519.519,0,0,1-.044-.35.278.278,0,0,1,.219-.263,5.207,5.207,0,0,0,1.577-1.4l-1.315-.964a1.143,1.143,0,0,1-.307-.438.79.79,0,0,1,.088-.438,19,19,0,0,0,.876-2.76h-.657a.444.444,0,0,1-.307-.175.623.623,0,0,1-.088-.263.633.633,0,0,1,.088-.307.341.341,0,0,1,.307-.131h.789c.088-.394.131-.745.175-1.1a3.022,3.022,0,0,1,.131-.35.48.48,0,0,1,.351,0C303.18,711.939,303.224,711.983,303.267,711.983Z" transform="translate(-292.094 -690.119)" fill="#4d4d4d"/>
  <path id="Path_177" data-name="Path 177" d="M344.293,684.122v-1.928h5.17l1.1-1.709h-6.266v-2.191h.526q3.483-.263,5.127-.526l-.351-1.665c-1.271.175-3.242.351-5.959.482q-3.943.263-6.967.263l.263,1.665c1.4,0,3.111-.044,5.126-.088v2.059H335.88v1.709h6.178v1.928Z" transform="translate(-305.691 -676.104)" fill="#920783" fill-rule="evenodd"/>
  <path id="Path_178" data-name="Path 178" d="M330.8,690.144a13.6,13.6,0,0,1-4.206,5.827l2.1.833a15.467,15.467,0,0,0,4.25-6.134Z" transform="translate(-302.055 -681.6)" fill="#920783" fill-rule="evenodd"/>
  <g id="Group_204" data-name="Group 204">
    <path id="Path_179" data-name="Path 179" d="M327.312,684.65a23.406,23.406,0,0,1,3.943,1.972l1.271-1.4a26.425,26.425,0,0,0-3.9-2.059Z" transform="translate(-302.337 -678.866)" fill="#920783" fill-rule="evenodd"/>
    <path id="Path_180" data-name="Path 180" d="M327.456,677.866a22.739,22.739,0,0,1,3.9,2.235l1.4-1.314a18.542,18.542,0,0,0-3.987-2.322Z" transform="translate(-302.393 -676.245)" fill="#920783" fill-rule="evenodd"/>
    <path id="Path_181" data-name="Path 181" d="M296.087,689.509h-9.026v1.709h18.578l1.052-1.709h-8.237v-3.724h5.608l1.139-1.709h-6.748V680.57h6.353l1.008-1.709h-7.361V676.32h-2.366v2.541h-4.25a7.134,7.134,0,0,0,.7-2.191l-2.235-.35a12.732,12.732,0,0,1-1.4,3.461,13.394,13.394,0,0,1-2.629,2.585l1.928,1.1a14.405,14.405,0,0,0,2.76-2.892h5.126v3.505h-6.923v1.709h6.923Z" transform="translate(-286.272 -676.189)" fill="#920783" fill-rule="evenodd"/>
    <path id="Path_182" data-name="Path 182" d="M343.8,691.12h3.549A1.871,1.871,0,0,1,349.056,693h0a1.721,1.721,0,0,1-1.709,1.753H343.8v1.84h3.812A3.47,3.47,0,0,0,350.9,693h0a3.624,3.624,0,0,0-3.286-3.724H343.8Zm-3.549,0H343.8v-1.84H340.03A3.624,3.624,0,0,0,336.744,693h0a3.47,3.47,0,0,0,3.286,3.593H343.8v-1.84h-3.549A1.685,1.685,0,0,1,338.584,693h0A1.835,1.835,0,0,1,340.249,691.12Z" transform="translate(-306.029 -681.262)" fill="#920783" fill-rule="evenodd"/>
    <path id="Path_183" data-name="Path 183" d="M402.387,691.261v-6.748l3.2-.088a3.561,3.561,0,0,0-1.052-.657l.92-.745h-3.067v-1.4h7.8l-1.139,1.4h-2.366c1.84,1.271,3.155,2.41,4.031,3.111l-1.621,1.183a16.736,16.736,0,0,0-1.49-1.577l-4.644.219.044,1.1h5.74l-1.271,1.49H403v1.1h7.449l-1.358,1.621Zm0-10.691v-1.358h5.126c.526,0,.526-1.183,0-1.183h-5.126V676.67h6.266c2.322,0,2.322,3.9,0,3.9Zm-25.676,7.449h5.871a.379.379,0,0,1,.263.131c.175.175.175.438,0,1.052-.044.175-.219.307-.482.438a11.082,11.082,0,0,1-4.82-.307.333.333,0,0,0-.175-.088l-.088,1.884c3.33.57,5.565.482,6.792-.263a1.7,1.7,0,0,0,.832-1.4c.088-.657.131-1.314.175-2.191.044-.394-.088-.657-.351-.745a.8.8,0,0,0-.394-.088h-7.624v1.577Zm0-2.585H384.6l1.183-1.358h-7.317v-1.052h5.7c2.016,0,2.059-3.593,0-3.593h-7.449V680.7h6.222a.551.551,0,0,1,0,1.1h-6.222v3.637Zm0-7.054c2.673-.044,5.214-.175,7.668-.394l-.57-1.665c-2.235.219-4.6.394-7.1.438v1.621Zm25.676-1.709v1.358h-7.974c-.482,0-.351.789-.351,1.183h8.325v1.358h-8.325v1.052h8.325v1.4h-1.8c-.394.438-.833.92-1.4,1.577l3.2-.088v6.748h-8.938V689.64h7.317v-1.1h-5.828v-1.49h5.828L400.722,686l-6.09.219c-.131-.526-.175-.964-.351-1.49l1.972-.044,1.665-1.665h-3.856a18.291,18.291,0,0,1-.789,5.521,9.305,9.305,0,0,1-1.183,2.8l-2.059-.789a13.472,13.472,0,0,0,1.884-7.317v-5.915c0-.438.307-.657.876-.657Zm-27.341,11.348h1.665v-1.577h-.964a2.716,2.716,0,0,1,.175-1.008h.789V681.8h-6.7v-1.1h6.7v-1.271h-6.7v-.745c0-.175.088-.263.307-.307,2.191.044,4.338.044,6.4,0v-1.621c-2.585.088-5.346.044-8.281-.044-.482,0-.745.219-.657.613v7.186a10.29,10.29,0,0,1-.351,2.629,9.1,9.1,0,0,1-1.446,3.2l2.1,1.008a13.416,13.416,0,0,0,1.928-6.835v-1.49h6.266v1.052H370.4v1.358h3.374a6.687,6.687,0,0,1-4.82,5.039l1.446,1.315A8.336,8.336,0,0,0,375.046,688.019Z" transform="translate(-317.472 -676.189)" fill="#920783" fill-rule="evenodd"/>
  </g>
</svg>
