<svg xmlns="http://www.w3.org/2000/svg" width="174.164" height="36.288" viewBox="0 0 174.164 36.288">
  <g id="logo" transform="translate(-69.836 -22)">
    <g id="logo-2" data-name="logo" transform="translate(0 -4.744)">
      <g id="组_115" data-name="组 115" transform="translate(125.924 552.04)">
        <path id="路径_364" data-name="路径 364" d="M-37.872-489.008a18.207,18.207,0,0,0,18.144-18.144A18.207,18.207,0,0,0-37.872-525.3a18.222,18.222,0,0,0-18.216,18.144A18.222,18.222,0,0,0-37.872-489.008Z" fill="#920783"/>
        <path id="路径_365" data-name="路径 365" d="M-46.08-521.912A15.459,15.459,0,0,1-36.432-524a17.25,17.25,0,0,1,13.176,8.424,1.3,1.3,0,0,1-2.3,1.224,15.426,15.426,0,0,0-6.48-5.688,4.6,4.6,0,0,0-3.888-.216l-4.032,1.512c-.792.36-.216,1.872.648,1.512,2.016-.72,2.88-1.008,4.9-1.8,1.656-.648,3.024,2.16,1.152,3.1L-54.72-507.3A17.747,17.747,0,0,1-46.08-521.912Z" fill="#ffec00"/>
        <path id="路径_366" data-name="路径 366" d="M-29.736-492.68a15.954,15.954,0,0,1-9.648,2.088,17.25,17.25,0,0,1-13.176-8.424,1.3,1.3,0,0,1,2.3-1.224,15.256,15.256,0,0,0,6.48,5.616,4.362,4.362,0,0,0,3.888.288l4.032-1.512c.792-.36.216-1.872-.648-1.584-2.016.792-2.88,1.08-4.9,1.872-1.656.648-3.024-2.16-1.152-3.168L-21.1-507.3A17.748,17.748,0,0,1-29.736-492.68Z" fill="#ffec00"/>
        <path id="路径_367" data-name="路径 367" d="M-47.736-496.856a1.888,1.888,0,0,1-.36-.648,2.953,2.953,0,0,1-.072-.792v-4.752h-1.8l-.36-.144-.288-.144-.432-.432a1.917,1.917,0,0,1-.216-.864,2.077,2.077,0,0,1,.216-1.3l.072-.144a1.681,1.681,0,0,1,.864-.72l10.368-4.32a7.2,7.2,0,0,1,2.088-.432,3.848,3.848,0,0,1,1.584.216c.5.144.936.432,1.44.576a4.955,4.955,0,0,0,.576.216v-.648a1.774,1.774,0,0,1,1.3-1.584c.144,0,.288-.072.432-.072h1.656l.36.144a1.509,1.509,0,0,1,.792.576,2.419,2.419,0,0,1,.36,1.008v2.376l3.672,2.016a1.639,1.639,0,0,1,.648.576,2.439,2.439,0,0,1,.216,2.016l-.144.36a1.909,1.909,0,0,1-.36.432l-.144.072h-2.88v-.432h2.16a.756.756,0,0,0,.648-.36,1.438,1.438,0,0,0,.144-.648,1.957,1.957,0,0,0,0-.648c-.144-.36-.36-.72-.648-.792l-4.032-2.232v-2.736a1.216,1.216,0,0,0-.216-.72,1.032,1.032,0,0,0-.72-.288h-1.512a.835.835,0,0,0-.72.288,1,1,0,0,0-.36.72v1.584a18.745,18.745,0,0,0-1.8-.72,5.985,5.985,0,0,0-2.16-.648,4.024,4.024,0,0,0-2.088.432c-2.3.864-4.392,1.8-6.552,2.664-1.3.576-2.592,1.08-3.888,1.656v-.072a1.489,1.489,0,0,0-.72,1.008,1.536,1.536,0,0,0,0,.576.818.818,0,0,0,.216.576.581.581,0,0,0,.648.288l2.232.072v5.4a1.826,1.826,0,0,0,.144.864h0a1.979,1.979,0,0,0,1.224.432h4.68v.648H-46.3a3.018,3.018,0,0,1-1.08-.288C-47.52-496.712-47.592-496.784-47.736-496.856Z" fill="#ffec00"/>
      </g>
    </g>
    <text id="分享共好_優化生活" data-name="分享共好  優化生活" transform="translate(115 46)" fill="#FFF" font-size="15" font-family="'jf-openhuninn-1\.1'"><tspan x="0" y="0" xml:space="preserve">分享共好  優化生活</tspan></text>
  </g>
</svg>