<svg xmlns="http://www.w3.org/2000/svg" width="281.033" height="178.168" viewBox="0 0 281.033 178.168">
  <g id="main_logo" transform="translate(-921 -297.039)">
    <path id="圖" d="M119.044,280.9h2.921l4.381.73,4.564,1.278,3.651,1.1,3.834,2.008,3.834,2.556,3.1,2.556,3.286,2.556,3.1,3.1,2.556,3.833,1.826,3.1,2.008,3.834,1.826,4.381.73,3.834.548,4.381.73,4.564h0l-.73,4.929-.548,3.833-.73,4.564-1.826,3.651-2.008,4.564-1.826,3.1-2.556,3.834-3.1,3.1-3.286,2.556-3.1,2.556-3.834,2.556-3.834,1.826-3.651,1.278-4.564,1.278-4.381.73h-2.921v-3.834h1.643l5.659-.73,5.842-1.825,4.929-2.556h0l4.564-2.556,4.381-3.834,3.1-3.651,3.286-4.564,2.556-5.111,1.826-4.929,1.278-5.842.548-4.929-8.762,3.1h0l-.73-.548h0l-.548-.73-.73-.548-9.493-5.111v-5.659h0v-1.278l-.548-1.278h0l-.73-.73-1.278-.548H130.18l-1.278.548-1.278.73-.548,2.556v1.278h-2.008l-3.1-2.008h0l-2.921-.365v-6.754l9.858-3.651h0l1.278-1.278.73-1.278v-3.1l-1.278-1.278-.73-.73-1.278-.548-1.825.548h0l-6.754,2.373V294.04l3.468-1.1h0l2.556-.548h2.008l2.556.548,1.826.73h0l5.111,2.373,3.834,3.286,3.834,3.833,3.1,4.381h0l1.278,1.278h3.1L153,308.1l.73-1.278v-1.1l-.73-1.278h0l-2.556-3.834-3.1-3.833-3.834-3.834-3.834-2.556-4.381-2.556-4.381-1.825L125.8,284.73l-5.111-.73h-1.643v-3.1Zm0,72.838,3.468-1.278h0l.73-1.1v-1.278l-.73-1.278h-1.826l-1.643.548v4.381Zm0-13.691,28.843-11.5h0l-.548-.73-.73-.548-9.493-5.111h0v-6.937h0v-.73l-.548-.548h0l-1.278-.73-.73-.548H130.91l-.73.548H128.9v1.278l-.548.73v3.651h0l-4.564-1.278h0l-2.373-1.1-2.373-.548Zm-1.46-59.147h1.46V284l-4.016-.548V280.9h2.556Zm1.46,88.172h-4.016v-3.834h4.016v3.834Zm0-54.948-.913-.183h0l-3.1.548v-5.659l4.016-1.46v6.754Zm0-15.7-4.016,1.46V295.5l4.016-1.461v4.381Zm0,17.525v24.1l-4.016,1.643V316.494l1.826-.73h2.008l.183.182Zm0,33.407v4.381l-4.016,1.278v-4.381l4.016-1.278Zm-5.659,19.533,1.643.183h0v-3.834h-1.643v3.651Zm0-13.326,1.643-.548v-4.381h0l-1.643.73v4.2Zm0-13.144,1.643-.73V316.494h0l-1.278.548h0l-.365.182v25.192Zm0-27.383,1.643-.548h0v-5.659l-1.643.73v5.476Zm0-14.422h.913l.73-.73V295.5l-1.643.73v4.381Zm0-16.977,1.643-.183h0V280.9h-1.643Zm0-2.738v2.738l-2.921.365-4.381,1.278-4.381,1.278-4.381,2.556h0l-4.564,2.556L88.923,295.5l-3.1,3.834-3.1,4.381-2.556,5.111-2.008,5.111-1.278,4.929v5.842l36.51-15.152v5.476l-.365.183h0l-25.375,10.77h0l-1.1.548-.73.73-.548.548h0l-.73,3.1h0l1.278,2.008h0l.73,1.278,1.1.548h5.111v11.5h0v1.826h0l-3.1-3.1-2.008-3.286h0l-1.1-1.278-1.278-.548H83.995l-.73.548-1.278.73-.548,1.278v1.278l.548,1.278h0l2.556,3.834,3.1,3.651,3.834,3.286,3.834,3.1,4.381,2.556,4.564,1.826,5.111,1.278,4.016.73v3.651l-2.921-.548-3.651-.548-4.564-1.278L98.6,364.5l-3.286-1.825-3.834-1.826-6.207-5.842-5.111-6.207-2.008-3.834-1.826-3.286L75.05,337.3l-.548-3.834-.73-4.381-.548-4.381h0l.548-3.834.73-4.381.548-4.564,1.278-3.834,1.826-3.651,2.008-3.286,5.111-6.937,6.207-5.111,3.834-2.556L98.6,284.73l3.651-1.278,4.564-1.278,3.651-1.278Zm0,15.334-.913.548h0l-.73.548v2.008l.73,1.278h.913V296.23Zm0,20.993L97.868,323.43h0l-9.493,3.834h0L87.1,328.542l-.548,1.1h0v1.278h0l.548,1.278h0l.548.73h1.278l5.111.548h0v12.779h0v1.278l.73,1.278h0l.548.548h8.945v-1.826l.548-1.278,1.278-.73,7.3-3.1V317.224Zm0,34.137-4.746,1.826h-2.556l-.548-.73-.73-1.1H96.043l3.651,1.826,3.286,2.556h0l2.556.548,2.556.73h1.826l2.556-1.278.913-.183Z" transform="translate(944.047 16.143)" fill="#fff" fill-rule="evenodd"/>
    <g id="Group_198" data-name="Group 198" transform="translate(921 397.536)">
      <path id="Path_606" data-name="Path 606" d="M466.364,394.184a10.257,10.257,0,0,1,10.114,10.343v4.057a10.257,10.257,0,0,1-10.114,10.343v-4.971h0a6.124,6.124,0,0,0,6-6.229v-2.343a6.124,6.124,0,0,0-6-6.229v-4.972Zm0,4.972,0,19.772a10.268,10.268,0,0,1-10.172-10.343v-4.057a10.268,10.268,0,0,1,10.172-10.343v4.972h0a6.135,6.135,0,0,0-6.057,6.229v2.343a6.135,6.135,0,0,0,6.057,6.229v4.971Zm0-4.971" transform="translate(-288.989 -390.013)" fill="#fff" fill-rule="evenodd"/>
      <rect id="Rectangle_71" data-name="Rectangle 71" width="17.772" height="4" transform="translate(168.346 14.286)" fill="#fff"/>
      <path id="Path_607" data-name="Path 607" d="M442.838,433.678v-5.2a87.455,87.455,0,0,0,11.257,1.829l-3.086,4.914c-2.8-.457-5.543-.971-8.172-1.543Zm0-9.029v-4.514h10.229l-3.143,4.514Zm0-7.657v-4.572l3.486-.286a10.862,10.862,0,0,1-1.543-2.4l6-1.257a48.451,48.451,0,0,1,4.4,8.572l-5.714,1.086a14.025,14.025,0,0,1-.8-1.657l-5.829.514Zm0-5.257c4.286-4.857,6.8-8.857,7.657-12l-6.229-.914a33.3,33.3,0,0,1-1.429,3.943v8.972Zm0-13.029v-3.943l1.943.629c-.514.914-1.143,2.057-1.943,3.314Zm39.486,19.943c1.2,1.6,2.457,3.143,3.657,4.743l5.714-2.571a116.1,116.1,0,0,0-9.372-10v-.914h4.4l3.143-4.686h-7.543v-6a50.7,50.7,0,0,0,8.057-1.314l-1.543-4.514a195.017,195.017,0,0,1-21.543,2.743l1.257,4.514c2.114-.114,4.514-.286,7.314-.514v5.086H467.3v4.686h7.772a41.154,41.154,0,0,1-10.686,13.657l6.514,2a40.255,40.255,0,0,0,4.971-6.343v16.343h6.457Zm-39.486-23.886v3.943c-.857,1.314-1.829,2.8-3.029,4.514.743.457,1.429.971,2.114,1.429.343-.629.629-1.257.914-1.886v8.972a8.8,8.8,0,0,1-.686.743l.686-.057v4.572l-10.514.914a13.811,13.811,0,0,1-.743-2.743v-1.771l3.6-.343c1.029-1.257,2.343-2.629,3.886-4.229a28.64,28.64,0,0,0-7.543-5.257v-1.257l2.857-2.743a2.312,2.312,0,0,1,1.029.571,43.629,43.629,0,0,0,3.657-6.572l3.771,1.2Zm0,25.372H425.98v-2.4l-5.657-.057v2.457H405.694v4.514h8.172a72.768,72.768,0,0,1-8.172,2.971v5.371a95.472,95.472,0,0,0,14.629-6.172v8.914h5.657v-8.172a63.027,63.027,0,0,0,16.857,6.114v-5.2a52.011,52.011,0,0,1-11.029-3.829h11.029v-4.514Zm-37.143-3.143v-4.629l1.429-.057c-.514-.743-.857-1.314-1.086-1.657a2.485,2.485,0,0,1-.343.4v-8.114a22.723,22.723,0,0,0,2.171-4.457l6,.914c-.857,2.514-3.372,6.229-7.543,11.086l5.486-1.257a29.153,29.153,0,0,1,2.857,5.257v-.057l.286,1.314a2.778,2.778,0,0,0-.171-.4c0-.057-.114-.457-.057-.171l.457,2.229-5.486.914a10.917,10.917,0,0,0-.514-1.486l-3.486.171Zm0-18.343c.8-1.314,1.429-2.457,1.943-3.429l-1.943-.629Zm0-4.057v4.057c-.514.8-1.086,1.657-1.714,2.629v-7.2l1.714.514Zm0,8.343v8.114l-1.429,1.429,1.429-.114v4.629l-1.714.114V404.192a4.685,4.685,0,0,1,.514.457c.457-.571.8-1.143,1.2-1.714Zm0,17.2v4.514H403.98v-4.514Zm0,7.486v5.371l-1.714.514v-5.372Zm-1.714-33.543v7.2c-.4.629-.8,1.257-1.314,1.943a8.723,8.723,0,0,1,1.314.971v12.915l-10.4.457a23.627,23.627,0,0,0-1.029-4.343l4.686-.4c1.371-1.2,2.857-2.571,4.4-4.171a96.988,96.988,0,0,0-8.8-5.829l3.372-3.429a18.089,18.089,0,0,1,2.057.914c1.2-2.057,2.457-4.4,3.657-6.914l2.057.686Zm0,26.058v4.514h-10.4v-4.514Zm0,8v5.372c-2.629.743-5.2,1.429-7.772,1.886l-3.372-4.743a102.992,102.992,0,0,0,11.143-2.514Zm-67.887-5.429v-4.114l1.829.4c-.571,1.314-1.2,2.514-1.829,3.714Zm0-11.886v-4.686h18.172v-5.657c-6.057.114-11.143.171-15.315.171l-.8-4.514c6.057,0,13.029-.286,20.8-.743,8.114-.343,14.115-.8,17.943-1.257l1.029,4.514c-3.314.514-8.4.971-15.315,1.486h-1.6v6h18.743l-3.371,4.686H361.008v5.314h-6.743v-5.314Zm0-9.6.229-.229-.229-.171Zm-61.2,29.429H247.863v4.743H303.35l3.2-4.743H281.863V420.478h16.857l3.429-4.743H281.863v-9.6h19.143l2.971-4.743H281.863v-6.914h-6.972v6.914H262.149a17.789,17.789,0,0,0,2.057-6l-6.743-.914a30.559,30.559,0,0,1-4.171,9.429,36.038,36.038,0,0,1-7.772,7.086l5.714,3.143a46.118,46.118,0,0,0,8.343-8h15.315v9.6h-20.8v4.743h20.8V430.65Zm61.2-29.829v.4l-3.886,3.429a72.327,72.327,0,0,0-11.714-6.172l3.886-3.829a57.117,57.117,0,0,1,11.714,6.172Zm0,5.314v4.686h-.286v-4.686Zm0,12.457v4.114a40,40,0,0,1-10.914,13.2l-6.229-2.343c6.057-4.743,10.229-10.057,12.457-16l4.686,1.029Zm-15.829-8.686a67.817,67.817,0,0,1,11.657,5.486l3.886-3.829a71.136,71.136,0,0,0-11.657-5.657Z" transform="translate(-245.52 -389.849)" fill="#fff" fill-rule="evenodd"/>
      <path id="Path_608" data-name="Path 608" d="M382.382,427.062h10.629a5.236,5.236,0,0,1,5.029,5.257h0a4.8,4.8,0,0,1-5.029,4.743H382.382v5.086h11.372a9.853,9.853,0,0,0,9.772-9.829h0c0-5.372-4.4-10.343-9.772-10.343H382.382Zm-10.686,0h10.686v-5.086H371.068c-5.372,0-9.772,4.971-9.772,10.343h0a9.853,9.853,0,0,0,9.772,9.829h11.314v-5.086H371.7a4.785,4.785,0,0,1-4.971-4.743h0A5.227,5.227,0,0,1,371.7,427.062Z" transform="translate(-269.409 -395.747)" fill="#fff" fill-rule="evenodd"/>
      <path id="Path_609" data-name="Path 609" d="M572.215,393.68h0a15.986,15.986,0,0,1,15.943,15.943v22.172h-6.914V413.052c0-7.314-1.714-13.315-9.029-13.315h0c-7.371,0-9.086,6-9.086,13.315v18.743h-6.857V409.623A15.95,15.95,0,0,1,572.215,393.68Z" transform="translate(-309.639 -389.909)" fill="#fff" fill-rule="evenodd"/>
      <path id="Path_610" data-name="Path 610" d="M550.728,440.264h38.8l-2.743,4.629H550.728Z" transform="translate(-308.495 -399.52)" fill="#fff" fill-rule="evenodd"/>
      <rect id="Rectangle_72" data-name="Rectangle 72" width="24.629" height="4.629" transform="translate(248.976 17.257)" fill="#fff"/>
      <rect id="Rectangle_73" data-name="Rectangle 73" width="24.629" height="4.629" transform="translate(248.976 28.8)" fill="#fff"/>
      <rect id="Rectangle_74" data-name="Rectangle 74" width="4.629" height="4.286" transform="translate(175.431 0)" fill="#fff"/>
    </g>
    <g id="Group_199" data-name="Group 199" transform="translate(923.515 458.815)">
      <path id="Path_611" data-name="Path 611" d="M382.046,458.624h.109a9.038,9.038,0,0,1,6.579,2.326,7.708,7.708,0,0,1,2.435,5.852,7.584,7.584,0,0,1-2.508,5.924,9.538,9.538,0,0,1-6.615,2.253v-2.29a5.091,5.091,0,0,0,3.489-1.272c.981-.872,1.454-2.4,1.454-4.652a6.91,6.91,0,0,0-1.2-4.289,4.444,4.444,0,0,0-3.707-1.563h-.036v-2.29Zm27.877,16.138H405.6l-4.507-8.105-4.107,4.071v4.034h-3.853V458.878h3.853V467.2c.473-.545.836-.945,1.054-1.163l7.087-7.16h3.925l-5.088,5.2Zm-27.95.254a8.845,8.845,0,0,1-6.615-2.4,7.866,7.866,0,0,1-2.4-5.852,7.529,7.529,0,0,1,2.544-5.815,9.346,9.346,0,0,1,6.542-2.326v2.29c-3.271.036-4.907,2-4.907,5.924a6.38,6.38,0,0,0,1.272,4.361,4.477,4.477,0,0,0,3.6,1.49h.036v2.29Z" transform="translate(-260.705 -458.624)" fill="#fff"/>
      <g id="Group_200" data-name="Group 200" transform="translate(209.111 0.254)">
        <path id="Path_612" data-name="Path 612" d="M478.563,475.011h-4.071l-3.307-6.542H470.2v-2.29h.363a5.832,5.832,0,0,0,3.089-.654,1.983,1.983,0,0,0,1.018-1.781,1.953,1.953,0,0,0-1.018-1.708,5.059,5.059,0,0,0-2.8-.654H470.2v-2.253h.981c2.581,0,4.471.436,5.67,1.272a3.94,3.94,0,0,1,1.817,3.38c0,2.035-1.272,3.417-3.853,4.216Zm-8.36-6.542h-4.434v6.542H461.88V459.128H470.2v2.253h-4.434v4.8H470.2Z" transform="translate(-461.88 -459.128)" fill="#fff"/>
        <path id="Path_618" data-name="Path 618" d="M505.224,459.2h8.687l-1.49,2.253c-2.181-.036-2.98,0-5.161,0-3.344,0-5.743,1.236-5.815,4.471l12.394-.036L512.348,468l-10.9.073c.073,3.017,2.617,4.361,5.815,4.4h6.651l-1.672,2.4h-7.015a7.713,7.713,0,0,1-7.56-7.851h0A7.7,7.7,0,0,1,505.224,459.2Z" transform="translate(-479.6 -459.164)" fill="#fff" fill-rule="evenodd"/>
        <path id="Path_613" data-name="Path 613" d="M549.37,475.011h-3.744l-8.105-10.177c-.145-.145-.327-.4-.618-.727-.109-.182-.327-.4-.581-.763v11.667h-3.089V459.128h4.252l7.487,9.341c.073.073.509.654,1.381,1.708V459.128h3.017Z" transform="translate(-497.213 -459.128)" fill="#fff"/>
        <path id="Path_614" data-name="Path 614" d="M578.109,475.011H574V461.563H568.3v-2.435h15.52v2.435h-5.706Z" transform="translate(-514.577 -459.128)" fill="#fff"/>
      </g>
      <rect id="Rectangle_75" data-name="Rectangle 75" width="3.889" height="15.883" transform="translate(14.393 0.254)" fill="#fff"/>
      <path id="Path_615" data-name="Path 615" d="M260.066,475.011H248.472V459.128h4.071v13.266h9.123Z" transform="translate(-248.472 -458.874)" fill="#fff" fill-rule="evenodd"/>
      <path id="Path_616" data-name="Path 616" d="M293.149,465.888h12.467L304.2,468H293.149c.036,4.362-.109,3.816,0,6.942H289.3v-7.923h0a7.728,7.728,0,0,1,7.56-7.814h8.687l-1.563,2.253h-6.288C294.784,461.89,293.585,463.125,293.149,465.888Z" transform="translate(-268.688 -458.909)" fill="#fff" fill-rule="evenodd"/>
      <path id="Path_617" data-name="Path 617" d="M331.7,459.2h8.687l-1.454,2.253c-2.217-.036-2.98,0-5.2,0-3.344,0-5.743,1.236-5.815,4.471l12.394-.036L338.864,468l-10.94.073c.073,3.017,2.617,4.361,5.815,4.4h6.651l-1.672,2.4H331.7a7.737,7.737,0,0,1-7.56-7.851h0A7.728,7.728,0,0,1,331.7,459.2Z" transform="translate(-285.945 -458.909)" fill="#fff" fill-rule="evenodd"/>
    </g>
  </g>
</svg>
