<svg xmlns="http://www.w3.org/2000/svg" width="53.962" height="70.642" viewBox="0 0 53.962 70.642">
  <g id="Sharing_circle" transform="translate(-36.609 -30.694)">
    <g id="Group_151" data-name="Group 151" transform="translate(-162.808 -172.738)">
      <path id="Path_526" data-name="Path 526" d="M264.81,203.432h0l1.453.129,1.356.1,1.324.226,1.227.226,1.356.452,1.227.452,1.227.452,1.13.549,1.1.678,1.13.775,1,.807,1.034.775,1,.9.775.9.9,1,.775,1h0l.678.226.678.226.549.323.452.452.452.581.355.549.1.678.1.775h0l-.1.678-.226.775-.323.581-.452.549-.581.549-.646.355-.678.226H281.96l-.581-.129-.9-.323-9.625,5.491,9.625,5.62h0l.9-.355.581-.1.42-.129h0l.807.129.678.226.646.323.581.452.452.549.323.678.226.678.1.775h0l-.1.678-.1.678-.355.549-.452.581-.452.42-.549.355-.678.323-.678.129h0l-.678,1-.872,1-.9,1.034-.9.872-1,.807-1,.775-1.13.775-1.13.678-1.227.549-1.227.581-1.227.452-1.26.323-1.324.226-1.324.226-1.356.226H264.81l-1.776-.129V243.8h1.776l2.261-.1,2.1-.355,2-.646,1.906-.807,1.809-1.1,1.679-1.26,1.55-1.453,1.356-1.55h0l-.323-.581-.226-.452-.226-.646v-.678l-10.109-5.846h0l-.678.678-.743.452-.9.323-1,.129h-.549l-.678-.226-.549-.129-.452-.323v-7.525h0l.452-.323.549-.129.678-.226h.549l1,.129.9.323.743.452.678.678L278.7,216.8v-.129h0V216l.1-.549.226-.549.355-.452h0l-1.356-1.583-1.453-1.453-1.679-1.227-1.809-1.034-1.906-.872-2-.581-2.1-.452-2.261-.1h0l-1.776.1v-3.682h0l1.776-.129Zm-2.842,43.86,1.066.1h0V243.8l-1.066-.194v3.682Zm0-18.959.161.226.452.355.452.323v-7.525h0l-.452.355-.452.323-.161.226v5.717Zm0-20.929,1.066-.161h0v-3.682l-1.066.161Zm0-3.682V207.4l-.614.065-1.68.452-1.583.581-1.583.646-1.453.807-1.324,1-1.26,1-1.227,1.227-1,1.26-1,1.324-.807,1.453-.678,1.583-.549,1.583-.323,1.679-.355,1.679v1.776h0V227.2l.355,1.809.323,1.68.549,1.583.678,1.453.807,1.453,1,1.357,1,1.324,1.227,1.13,1.26,1.13,1.324.9,1.453.775,1.583.775,1.583.581,1.68.323.614.129v3.682l-1.066-.1-2.035-.452-1.906-.678-1.906-.807-1.776-1-1.583-1.1-1.583-1.26-1.453-1.453-1.324-1.55-1.13-1.583-1-1.809-.807-1.776-.678-2.035-.549-2-.226-2.035-.1-2.132h0l.1-2.132.226-2.132.549-2,.678-1.906.807-1.809,1-1.776,1.13-1.679,1.324-1.453,1.453-1.486,1.583-1.227,1.583-1.1,1.776-1.034,1.906-.775,1.906-.678,2.035-.452,1.066-.162Zm0,18.894-.162.226-.355.452-.226.452L261,224.3l-.1.581v.549h0v.678l.1.549.226.549.226.452.355.452.162.226Z" transform="translate(-37.431 0)" fill="#fff" fill-rule="evenodd"/>
      <path id="Path_527" data-name="Path 527" d="M327.369,241.232h0l.226,1.227.129,1.357.194,2.551h0l-.1,2.584-.452,2.487-8.849-5.168Z" transform="translate(-79.159 -20.844)" fill="#fff" fill-rule="evenodd"/>
    </g>
    <path id="Path_530" data-name="Path 530" d="M235.54,330.219l1.277-.09h0l.054-.252.2-.2h0l.306-3.491h0l-.18.18h0l-.324.2-.306.054h0l-.252-.054-.306-.2v.378h0v.432l-.072.378h0l-.054.324-.072.252-.126.234-.144.162v-5.776h.09l.18-.072.2-.126h0l.126-.054.18-.054h0l-.18-.072-.2-.126h0l-.126-.054-.18-.072h-.09v-1.116h.342l.126-.072h0l.252-.126h.234l.378.072.126.054.126.126h0l.2.324v.306h0l-.072.306-.126.2h0l-.18.126-.2.126h0l.252.054.2.126h0l.18.306.072.378h0l-.072.324-.126.234h0l-.126.126-.18.072-.378.054h-.306l-.252-.126h0l.126.252.234.378h0l.2.072.18.054h0l.252.054.252.2h0l.2.252h0v-2.321h0v-2.861l-.072-.828-.054-.486h0l-.2-.252-.126-.126h0l-.306-.126-.378-.072h0l-.774-.036v-1.439l.954.054.828.126h0l.36.108.324.324h0l.18.18.2.252.126.252.108.306h0l.126.63.072.882.054,1.242v1.493h0l-.054,1.691-.072,1.745-.126,1.817-.108,1.871h.234l.324.072h0l.126.126.126.126.126.252.126.234h0v.576l-.072.18-.054.2h0l-.126.18-.2.126-.18.126-.2.054h0l-.18.072h-.18l-.378-.072h0l-.2-.18-.18-.252h0l-2.087.2v-1.475Zm0-9.7.018-.018.2-.126h0l.126-.18.054-.2.126-.378h0l-.054-.252-.072-.18-.054-.126-.126-.18h0l-.2-.126-.018-.018ZM235,331.748v-1.493h0l.54-.036v1.475l-.54.054Zm.54-3.221-.036.036h0l-.2.18-.306.126v-6.118h.54v5.776Zm0-6.406H235v-1.116h.54v1.116Zm0-3.977-.54-.018v-1.439h0l.54.018v1.439Zm0,.594v1.781l-.162.108h-.18l-.2.054h0v-2.051l.378.054.162.054Zm-2.123,13.1,1.583-.09v-1.493h0l-1.583.126v1.457Zm0-3.023.522.054.558.072h.252l.252-.072h0v-6.118l-1.583.054v1.242l.774-.054.054.324.2.252h-1.026v1.242h.954l.252.126h0l.126.126.072.252h0V327h0l-.072.306-.18.2h0l-.252.126h-.684l-.216-.036v1.224Zm0-6.748,1.583.054v-1.116l-1.583-.108v1.17Zm0-3.941H235v-1.439l-.558-.054h-1.026v1.493Zm1.583.5h-.18l-.2.054-.18.126-.2.126h0l-.126.126-.054.18-.054.2-.072.18h0l.072.2.054.252.054.126.126.18h0l.2.126.18.126h.2l.18.054h0Zm-1.583-2v1.493h-1.6v-1.493h1.6Zm0,4.264v1.17l-1.6-.072v-1.188l1.6.09Zm0,1.907v1.242l-1.6.072v-1.242l1.6-.072Zm0,1.763v1.242h-.72l-.882.072v-1.26h0l.882-.054Zm0,3.023v1.224h-.162l.126.306h0v.63l-.126.18h0l-.126.2-.126.126-.306.126h0l-.378.054-.324-.054h0l-.18-.126v-3.077h0l.054-.054h0l.2-.072.306-.054h.2l.18.054.2.126.108.126h0l.072.072.054.18h0l.234.036Zm0,2.789-1.6.108v1.44h0l1.6-.09v-1.457Zm-4.822,1.673v-1.385l3.221-.18v1.44h0l-3.221.126Zm0-1.853.216.054h1.511l1.368-.2h0l.126.2v-3.077h0l-.126.2-.126.18-.054.2v.18h0v.306l.126.252h0l.126.126h0l-.126.2h0l-1.314.126-.936.054h0l-.252-.054-.2-.126h0v-.126l-.054-.252h0l-.126-1.745h0l.054-.072h.126l.324-.18.18-.126h0l1.134-.252,1.242-.18v-1.26h0l-1.439.18-1.368.252h0l-.252-.054-.162.036V330.2Zm0-5.578.288-.378,2.933-.126v-1.242l-2.069.126.756-1.062,1.314.054v-1.188h-.5l.126-.126.2-.126h.18v-1.745h0l-.378-.126h-.378l-.306.2-.18.252h0l-.2.234-.054.252h0v.252l-.126.2-.45.684-1.116-.072h0l.18-.126.2-.126h0l.126-.18.054-.126.072-.252.054-.18h0l-.054-.252-.072-.2-.054-.108-.126-.2h0l-.2-.126-.18-.054-.036-.018v3.095l.342.036-.342.468v2.285Zm0-6.262.468-.054,2.753-.18h0v-1.493l-2.627.18-.594.072v1.475Zm3.221,2.2v-1.745h0l.126.126h0l.18.126.126.18.072.2.054.18h0l-.054.324-.2.306h0l-.126.18Zm-3.221-3.671v1.475l-2.285.27h0l-.18.18-.18.072h0l-.126.252-.2.18h0l-.432,7-.126,2.3v1.565h0v.252l.054.126h0l.2.126.252.054h0l2.807-.054.216-.018v1.385h-.216l-3.059.072h-.378l-.306-.126-.324-.126-.252-.2h0l-.234-.18-.126-.252-.072-.378-.054-.378h0l.054-2.051.126-2.555.2-3.077.234-3.563h0l-.18-.306-.054-.378h0l.054-.252.054-.252.072-.18.126-.126h0l.252-.18.306-.126h0l.072-.126h0l.126-.126.108-.126.324-.126h.378l.306.126h0l.072.126h0l2.393-.306Zm0,1.853-.342-.054h-.18l-.2.072-.378.18h0l-.126.2-.054.108-.054.2v.252h0v.18l.054.252.054.18.126.126h0l.252.2H227.5l-.18-.126h0l-.18-.126-.252-.072h0l-.324.072-.306.126h0l-.126.054-.054.126-.126.378h0l.054.252v.18l.126.126.126.2h0l.252.126.306.054h.252l.2-.126h0l.18-.054.18-.072.972.09v-3.095Zm0,3.6-.522.72h-1.134l-.18-.126h0l-.2-.054-.306-.072h0l-.306.072-.252.18h0l-.126.126-.126.126v.2l-.072.234h0l.072.2.054.18.126.2.126.126h0l.324.126.234.054h0l.324-.054.18-.126h0l.2-.126.18-.072-.5.81h0l-.126.126-.18.126h0l-.252.126-.252.252h0l-.18.378v.432h0l.126.252.252.252h0l.306.18.432.072h0l.324-.126.234-.18h0l.2,1.8h0v.378l.126.306.126.252.18.2h0l.252.18.252.126.09.018v-5.164l-.144.018h-.2l.342-.432v-2.285ZM212.4,329.8v-1.439l3.617.252h0v-.18h0v-.252l.054-.306h0l.5-1.188h0v-.2h0l-.072-.126-.18-.126-.2-.054-.306-.072h0l-1.314-.054h-1.6l-.5.054V324.8h0l1.26-.054,1.1.054,1.062.072.936.054h0l.324.072.306.054.252.126.252.126h0l.126.2.126.18.054.2.072.18h0l-.072.306-.054.324h0l-.576,1.116h0l-.054.2v.234h0v.2l.126.252.864.054h.252l.2-.126h0l.306-.126h.558l.2.126.18.072.126.18h0l.126.2.072.18.054.378h0l-.126.378-.18.306h0l-.126.072-.2.054-.486.054h0l-.324-.054-.252-.126h0l-.432-.18h-.378l-.18.558-.324.63h0l-.054.306-.126.378h0l-.306.306-.2.126h-.756l-.18-.126h0l-.18-.126-.126-.18-.072-.2v-.18h0l.126-.5.2-.432h0l.126-.126.108-.126.2-.054h.18l.126-.324L212.4,329.8Zm0-5.56v-1.368h0l5.416-.378h0v-.126h0l.126-.378.2-.18h0v-.432h0l-.072-.2-.054-.18h0l-.2-.072-.306-.054h-2.555l-2.555.054v-1.367h0l2.555-.126,2.609.054h.45l.36.072.324.126.252.18h0l.252.252.18.252.126.378.054.306h0l-.054.81h0l.126.126.054.2h.126l.126.054.126.2.126.18.072.306h0l.054.252v.252l-.054.252-.072.18h0l-.126.2-.18.126-.2.054-.18.126h0l-.378.072-.18-.072-.2-.054h0l-.252-.126-.126-.252h0l-5.974.306Zm0-5.362v-2.7h0l.432.072.2.126.18.126h0l.126.18.126.2.072.18v.252h0v.126l5.038-.2h0l.18-.054.2-.126h0l.252-.126.36-.054h.252l.2.054.18.126.126.126h0l.126.126.126.18.054.2v.252h0l-.054.36-.126.252h0l-.18.126-.2.126-.18.072-.252.054h0l-.378-.054-.252-.126h0l-.18-.072-.252-.054-6.172.252Zm-15.186-.45-3.437.072v1.368l3.311-.054-.36,6.37h0v.18l-.126.252h0l-.126.126L196.4,327l-2.627-.126v1.44l2.249.054h0l-.054.2.054.252h0l.126.378.2.234h0l.252.252h.252l.234.072.2.126,1.439,1.44h0l.054.18.072.18h0l.126.324.18.306h0l.18.2.2.054.252.126h.378l.126-.054.36-.252h0l.126-.126.126-.2.072-.18v-.252h0v-.18l-.072-.252-.126-.2-.126-.18h0l-.306-.2-.306-.126h-.2l-.252-.18-1.314-1.367h0l-.126-.2-.054-.252h0l1.619.072h.2l.18.126h0l.306.126.324.054h.252l.252-.054.18-.072.18-.126h0l.126-.252.126-.36h0v-.252l-.054-.2-.2-.306h0l-.18-.2L201.28,327l-.252-.126h-.558l-.252.126h0l-.252.126h-.18l-1.439-.072h0l-.072-.18-.054-.126h0l-.072-.252-.054-.252.432-6.424h1.565l.2.054h0l.306.126.378.072h0l.18-.072.252-.054.18-.072.126-.126h0l.2-.306.054-.378h0v-.18l-.054-.2-.252-.378h0l-.126-.126-.18-.126h-.2L200.9,318h0l-.378.054-.234.126h0l-.2.126-.18.072h-1.26l.072-.252.126-.18h0l.126-.252.054-.324h0l-.054-.378-.126-.36h0l-.126-.126-.126-.126-.252-.072h-.2l-.306-.054-.18.054-.2.126-.18.126h0l-.2.324-.108.36h0l.054.324.054.252h0l.126.18v.432Zm15.186-2.249h-.306l-.2.072-.18.126-.18.126h0l-.2.18-.126.2-.054.18v.252h0v.18l-4.57.126h-.252l-.252-.126h0l-.234-.126h-.324l-.306.072-.378.18h0l-.126.126-.126.2-.054.18v.252h0v.306l.126.2.126.18.108.126h0l.378.18.324.072h0l.306-.072.252-.126h0l.18-.108.324-.072h0l5.74-.18v-2.7Zm0,3.383-2.627.18-2.681.324h0l-.054-.072h0l-.126-.126-.2-.054h-.378l-.18.054-.126.072-.126.126-.054.126h0l-.2.108h0l-.126.2-.126.18v.2l-.054.252h0l.054.306.072.252h0l-.2,1.062h0v.432l.126.324.126.234.2.252h0l.306.2.252.126.378.054h2.861l2.879-.126h0v-1.368l-2.807.126h-2.627l-.18-.126h0l-.072-.2v-.234h0l.072-.378h0l.18-.126h0l.252-.2.126-.306h0l2.5-.306,2.555-.2h0v-1.367Zm0,5.236-.432.072h0l-1.062.054-1.26.2-1.421.252-1.565.306h0l-.2-.126h0l-.054-.054h-.5l-.378.126-.252.18h0l-.126.252-.054.18v.252l-.072.252h0l.072.2.054.18.2.126.126.18h0l.18.072h.378l.18-.072h0l.378-.18.126-.072.126-.18h0l1.493-.252,1.439-.252,1.385-.252,1.242-.126h0V324.8Zm0,3.563-5.812-.306-.252-.054-.18-.126h0l-.252-.126-.306-.072h-.378l-.378.2h0l-.126.054-.126.2-.126.18v.306h0v.252l.072.252.126.18.126.126h0l.306.2.378.054h.306l.252-.126h0l.18-.054.252-.072h0l5.938.378v-1.439Zm-18.623-9.86v1.368l-3.311.072.324,5.488.054.252.126.2h0l.126.306.072.378h0v.18h0l2.609.126v1.44l-3.311-.18v.054h0v.378l-.126.306h0l-.18.324-.126.108h-.126l-.252.126-.126.2h0l-.558,1.242-.054.2v.18h0v.306l-.126.378h0l-.126.2-.2.126-.18.126-.2.054h0l-.18.072h-.18l-.2-.072-.18-.126h0l-.324-.18L186.9,332l-.054-.126h0v-.684l.126-.2h0l.18-.306.252-.2h0l.2-.108.126-.126h0l.558-1.26.054-.252v-.18h0l.072-.252.054-.252h0l-.81-.054-.252.054-.252.072h0l-.252.108H186.6l-.306-.054-.324-.18h0l-.18-.126-.126-.2v-.252l-.054-.252h0l.054-.234.072-.252.108-.126.126-.126h0l.378-.2h.378l.306.072.252.126h0l.2.126.252.054h1.421l.072-.378.054-.306h0l.072-.18.054-.252h0l-.36-5.506h-1.439l-.252.126h0l-.2.126-.36.054h0l-.324-.054-.378-.126h0l-.126-.18-.126-.2-.054-.18-.054-.324h0l.054-.234.054-.2.072-.18.18-.126h0l.324-.2.378-.054h0l.306.054.252.126h0l.18.126h1.439l-.054-.252-.126-.18h0l-.126-.252-.072-.306h0l.072-.378.126-.306h0l.18-.2.18-.126.2-.054.252-.072h0l.252.072h.252l.126.126.108.126h0l.2.36.054.324h0v.378l-.126.234h0l-.054.2v.306h0Z" transform="translate(-149 -231.347)" fill="#fff" fill-rule="evenodd"/>
  </g>
</svg>
