<svg xmlns="http://www.w3.org/2000/svg" width="70.624" height="71.375" viewBox="0 0 70.624 71.375">
  <g id="Ultra_clean" transform="translate(2.506)">
    <g id="TEXT" transform="translate(-3 53.724)">
      <path id="Path_103" data-name="Path 103" d="M1060,889.1l.783.124a4.306,4.306,0,0,0,3.5-.494c.288-.247.535-.247.7-.041v.288c-.783,1.195-2.431,1.607-4.985,1.277V889.1Zm0-1.73V886.3a10.37,10.37,0,0,0,2.6-2.39.763.763,0,0,0-.659-.124l-1.936.165v-1.236a14.757,14.757,0,0,1,3.337.288l.288.288v.577c.124.165-.206.783-.989,1.772-.288.659-1.154,1.277-2.637,1.73Zm0-6.839v-.865q1.3-.618,2.225-3.584v-.165h-.247l-1.936.33-.041.082V875.3a14.082,14.082,0,0,0,1.772-.247l.824-.165h.247c.33.041.453.206.412.536l-.041.288a7.311,7.311,0,0,1-2.431,4.491A1.258,1.258,0,0,1,1060,880.528Zm-10.794-6.139h.206c.247-.041.494.288.7,1.03l1.607-.577.329.082v.124c.041.288-.536.742-1.771,1.36a7.349,7.349,0,0,1-.412,2.8l-.124.165v.165l2.019-.536.33.247v.124c.082.206-.453.536-1.689,1.03l-.206.082c.206,0,.288.536.247,1.648a7.02,7.02,0,0,1-.041,2.06,8.648,8.648,0,0,0,2.142-1.112l.577-.371.412.371c-.247.659-1.36,1.524-3.3,2.637-.165.412,1.483,1.112,5.026,2.183a21.707,21.707,0,0,0,4.2,1.071l.536.124v1.154a31.732,31.732,0,0,1-4.449-1.112,45.019,45.019,0,0,1-5.686-1.854l-.412.206c-.165-.082-.288-.33-.453-.824a3.839,3.839,0,0,1-1.442-.948l-.082-.082a15.517,15.517,0,0,1-1.071,4.449l-.165.165h-.165l-.206-.206a24.251,24.251,0,0,0,.577-5.356,3.057,3.057,0,0,0-.247-1.4c.536-.742.865-.742,1.03,0a5.256,5.256,0,0,1,.247,1.978.8.8,0,0,1,.453-.453l.329-.041.906.659h.041a9.861,9.861,0,0,0,.247-3.5l-.123-1.071-2.307.659-.577.041-.288-.288v-.412c-.041-.288.659-.535,2.183-.783.659-.453.989-1.483.989-3.049l-.124-.206a8.3,8.3,0,0,1-2.513.742c-.165,0-.33-.206-.453-.577-.082-.412.536-.7,1.936-.906l.989-.247c.083-.082-.041-.33-.288-.824v-.288l.329-.33ZM1060,875.3a12.148,12.148,0,0,1-1.73.041c-1.4.041-2.06.288-1.895.742l.288.412,2.142-.206.083.124-.206.783-1.566,2.884c-.577.824-.783,1.236-.7,1.318l.165.165-.082.33.536,2.39c.494,2.554.989,3.708,1.565,3.5a11.333,11.333,0,0,0,1.4-.412V886.3a1.164,1.164,0,0,1-.7.165h-.124l-.165-.124-.206.247h-.165l-.536-2.266.741-.288,1.154-.082v-1.236a3.83,3.83,0,0,0-2.142.494c-.165-1.154-.412-1.73-.742-1.772a16.16,16.16,0,0,0,2.884-5.109V875.3Zm0,4.367a.939.939,0,0,1-.453.124l-.618-.041-.247.206v.165a.661.661,0,0,0,.577.453h.247a2,2,0,0,0,.494-.041Z" transform="translate(-1045.378 -874.394)" fill="#fff"/>
      <path id="Path_104" data-name="Path 104" d="M1085.583,873.024l4.126.449.327.2c.245.449-.449.613-2.124.531l-2.043-.082a1.052,1.052,0,0,1-.735-.2v-.695a.664.664,0,0,1,.449-.2Zm-.449,15.321V887.2c.776-.041,1.716-.123,2.778-.2-.2-.082.041-.449.654-1.021a8.3,8.3,0,0,0,1.348-4,30.952,30.952,0,0,1,.572-4.943,54.84,54.84,0,0,1-5.352,1.226v-.98c2.124-.368,5.107-1.021,8.988-1.92l.49.163c.286.327-.368.613-1.92.9-.695-.123-1.062.368-1.062,1.512l-.654,4.984a7.7,7.7,0,0,1-1.185,2.86l-1.021,1.1v.041a52.561,52.561,0,0,0,7.313-.49h.817c.163-.041.327.082.49.327v.2c-.123.286-.286.409-.572.327a7.633,7.633,0,0,0-2.206.123l-5.352.531c-.817.122-2.165.286-4.126.408Zm0-2.288.123.164h.2l.327-.286.245-1.062v-2.737a4.082,4.082,0,0,0-.9-3.309Zm0-12.134a.413.413,0,0,1-.163-.286v-.163a.336.336,0,0,1,.163-.245v.695Zm0,3.35v.98c-1.348.245-2.737.49-4.249.654h-.163c-.163,0-.327-.123-.49-.409v-.286c-.082-.245.613-.449,2.124-.531a21.571,21.571,0,0,0,2.778-.409Zm0,1.552h-.409c-.082-.082-.286.041-.531.327l.572,1.593c.2,2.492.245,3.718.122,3.759v1.307l.245.245v-7.231Zm0,8.375v1.144c-1.43.123-3.146.2-5.148.327l-1.634.327-.368-.654c.49-.531,1.879-.817,4.126-.9C1082.4,887.405,1083.377,887.323,1085.134,887.2Z" transform="translate(-1052.49 -873.032)" fill="#fff"/>
      <path id="Path_105" data-name="Path 105" d="M1127.6,870.648l.458.153c0,.305-.344.573-.954.84.42.076.611.267.573.458.305.8-.191,1.756-1.451,2.9v-1.565a2.377,2.377,0,0,0,.305-1.641h-.115l-.191.038v-.8c.458-.115.878-.229,1.374-.382Zm-1.374,5.688.8-.038,1.031.229a.706.706,0,0,1,.267.687l-.115.534,1.3-.191.458.267q.344.515-2.176,1.031c-.115-.076-.5.305-1.069,1.145l-.382.534,1.069-.229.42.076v.267a4.111,4.111,0,0,1-1.6,1.145v-3.55l.687-.153.382-.763-.153-.153h-.916Zm0-1.336c-.191.191-.458.42-.687.611v-1.336l.191-.191a2.659,2.659,0,0,0,.5-.649V875Zm-.687,1.374.687-.038v.84l-.687.115v-.916Zm.687,5.421c-.191.076-.458.191-.687.305v-2.214l.458-.5-.458.115v-1.069l.687-.191v3.55Zm-.687-10.574c.229-.076.458-.115.687-.191v.8l-.687.191Zm0,4.39a7.317,7.317,0,0,0-.649.5l-.42.305,1.069-.038v.916l-.305.038-.076,1.183h.114l.267-.076V879.5l-.5.115.076.687.42-.42V882.1a2.655,2.655,0,0,0-.5.191l-.5,6.947c.115.229-.076.5-.573.763V875.687c.343-.344.878-.8,1.565-1.412v1.336Zm-1.565-4.084v3.4h.382a.645.645,0,0,0,.344-.763c-.076-1.069-.191-1.641-.382-1.756l.038-.038,1.183-.344v-.8C1124.966,871.335,1124.431,871.45,1123.973,871.526Zm0,18.475a6.049,6.049,0,0,1-.687.305h-.382a3.2,3.2,0,0,1-2.1-1.26v-.115l.229-.191c.076-.115.649.115,1.718.649l.305.076c.305-.076.42-.382.382-.878a7.05,7.05,0,0,0,.267-2.519c.153-.153.153-1.26.038-3.321l-.038-.038-4.008,1.069a.708.708,0,0,1-.535-.5v-.115c-.076-.229.42-.382,1.451-.573l2.825-.878.382-.229-.076-1.6-.038-.038-4.008.878a7.958,7.958,0,0,0-2.1.916h-.191a.555.555,0,0,1-.344-.229v-.535c.5-.611,2.748-1.3,6.756-2.138.076-.038.038-.5-.076-1.3l-2.137.191c-.726.267-1.145.076-1.222-.534.038-.191.344-.305.878-.382q-.229,0-.458-.916l-.191-.534a4.34,4.34,0,0,0-.725-2.29l-.878.115-.305-.344v-.305c-.115-.305,1.031-.534,3.512-.687.5-.038,1.069-.115,1.756-.229v3.4c-.191-.038-.344-.382-.42-1.031l-.534-1.107-.229-.153-1.413.229a8.652,8.652,0,0,1,.5,3.436l-.229.344v.076a4.634,4.634,0,0,0,1.718-.153v-.153c-.038-.038.153-.267.611-.725V890Zm-6.909-9.276c.038-.038.076-.115.115-.153v-.305h-.115Zm0,.687c-.115-.076-.115-.191-.115-.344a.35.35,0,0,1,.115-.191v.535Zm0-1.145h-.229l-.191.038a3.551,3.551,0,0,0-1.3,1.069,25.807,25.807,0,0,1-4.962,3.664v.153l.5.42h.305a7.051,7.051,0,0,0,1.985-1.222,20.676,20.676,0,0,0,3.894-3.664v-.458Zm-4.581-5.84a7.367,7.367,0,0,1,2.29.305l1.871.458.076.267a2.08,2.08,0,0,1-1.68.191l-2.634-.229c-.191,0-.305-.267-.305-.725l.382-.267Zm2.481,3.55h.725l.229.191c.229.267-.344.535-1.679.8l-2.443.649h-.572c-.267-.038-.382-.267-.344-.725-.038-.153.5-.305,1.6-.382Z" transform="translate(-1058.89 -872.656)" fill="#fff"/>
    </g>
    <path id="Path_106" data-name="Path 106" d="M1025.561,893.684c.339.085.763.085.848-.424.17-1.018.17-4.07.339-4.664.17-.509,1.1-12.465.933-14.161-.17-1.611-.848-3.985-2.12-4.494v.763a4.6,4.6,0,0,1,1.1,2.2c-.17.085-.678-1.018-1.1-1.357v1.187c.763.509.594,2.713.594,2.713-.339-.085-.255-1.187-.594-1.611h0Zm-.509-.17a.716.716,0,0,0,.509.17V873.842a3.978,3.978,0,0,1-.509-.763v1.866a47.334,47.334,0,0,1,0,6.953v11.617Zm.509-23.573a.642.642,0,0,0-.339-.085h-.17v.594a.733.733,0,0,1,.509.254v-.763Zm0,1.611v1.187a.561.561,0,0,0-.509-.085v-1.441l.509.254Zm-.594,21.962h.085V881.9l-.085.593a18.549,18.549,0,0,1-.254,2.374,44.912,44.912,0,0,0-.424,4.579s-2.2-1.442-3.646-2.289v.678c.085.085.085.085.17.085,1.1.509,3.392,1.95,3.307,2.544s-.339.255-.339.255-1.611-1.1-3.137-1.95v2.289c2.035,1.1,4.325,2.459,4.325,2.459Zm.085-23.658a2.111,2.111,0,0,0-1.95,1.1,2.816,2.816,0,0,0-2.035,1.018,3.589,3.589,0,0,0-.424.594v1.357a3.712,3.712,0,0,1,1.526-1.7v.339a9.646,9.646,0,0,0-1.526,2.8v3.307a1.73,1.73,0,0,1,.424-.424c.085.169-.254.593-.254.848a.909.909,0,0,1-.17.509v1.018c.17-.17.339-.424.509-.594.509-.763.424-2.2,1.272-4.24.254-.848.763-3.053,1.95-2.629.339.085.509.763.678,1.781v-1.866c-.17-.254-.17-.424-.085-.424h.085v-1.441c-.509-.254-1.018-.339-.848-.594a1.1,1.1,0,0,1,.848-.17Zm-4.409,2.713a24.616,24.616,0,0,0-1.7,5.342s-4.24-1.611-7.377-1.1v.678c1.611-.17,5.512-.254,7.038,1.442-.17.933-2.544-.339-3.985-.848a15.581,15.581,0,0,0-3.053-.424v.933a7.49,7.49,0,0,1,2.12.17c.085.17-1.442,0-1.95.085l-.17.085v.763h.509c.678-.085,6.529,1.865,8.225,1.187.085-.085.255-.169.339-.254v-1.018q-.127.255-.254.254c-.424-.254-.085-.848.254-1.187v-3.307c-.169.594-.424,1.187-.594,1.865a6.889,6.889,0,0,1,.594-3.307V872.57Zm-9.073,14.839c2.374,1.018,6.275,2.289,7.038,2.629.509.254,1.272.593,2.035,1.017v-2.289c-.424-.17-.763-.339-1.1-.509-1.781-.678-4.918-1.526-6.868-2.374a7.76,7.76,0,0,1-1.1-.678v2.2Zm9.073-.254v.678c-1.272-.509-5.512-1.865-6.7-2.374a20.647,20.647,0,0,1-2.374-1.187v-.678c.763.424,1.611.848,2.12,1.1,1.187.509,4.833,1.442,6.02,1.95A9.248,9.248,0,0,0,1020.643,887.155Zm-9.073-10.345a3.476,3.476,0,0,0-2.629,1.611,1.482,1.482,0,0,0-.424.085v.763c.169-.085.254-.17.424-.17.255.085-.085.594-.424,1.018v4.918a6.657,6.657,0,0,0,2.2,1.95,3.966,3.966,0,0,0,.848.424v-2.2a10.654,10.654,0,0,1-2.12-2.12s-.085-.424.509-.17a17.2,17.2,0,0,0,1.611,1.357v-.678c-1.1-.763-2.12-1.7-1.781-2.459a2.072,2.072,0,0,1,1.781-1.442v-.763c-.763.254-1.95.678-2.035.17a3.182,3.182,0,0,1,2.035-.509v-.933c-.424,0-.763-.085-.678-.17h.678Zm-3.052,1.7a2.909,2.909,0,0,0-1.357,1.781c-.509,1.272.254,3.222,1.357,4.749v-4.918c0,.085,0,.085-.085.17a10.834,10.834,0,0,0-.339,1.1s-.17-1.611.424-2.12Z" transform="translate(-991.459 -869.852)" fill="#fff" fill-rule="evenodd"/>
    <path id="Path_107" data-name="Path 107" d="M1039.261,891.771c.763-.424,1.357-.848,1.442-1.442a1.8,1.8,0,0,0-.933-1.7,2.2,2.2,0,0,0-.509-1.187v3.222a.083.083,0,0,0,.085-.085c.424-.509.424-1.187.678-1.018.509.678-.085,1.272-.763,1.611Zm-.848.254c.254-.085.593-.17.848-.254v-.594c-.339.17-.678.254-.848.339v.509Zm.848-4.579v3.222c-.255.254-.678.509-.848.678v-.678a1.075,1.075,0,0,0,.085-.509h-.085v-2.2h.085l.254.085a1.306,1.306,0,0,0-.339-.509v-.763c.169.085.424.17.509.339C1039.091,887.192,1039.176,887.362,1039.261,887.446Zm-1.865,4.833a4.483,4.483,0,0,0,1.018-.254v-.509h-.085a.263.263,0,0,1,.085-.17v-.678c-.17.254-.594.339-1.018.424v1.187Zm1.018-5.512c-.255-.17-.678-.254-1.018-.424v.509a2.38,2.38,0,0,1,1.018.678v-.763Zm0,1.187v2.2a1.859,1.859,0,0,0-.848.509c-.085,0-.085,0-.169.085v-.594c.424-.17.594-.254.678-.424.17-.424-.169-.763-.678-1.018v-1.357A4.013,4.013,0,0,1,1038.413,887.955Zm-5,4.325a25.879,25.879,0,0,0,3.731,0h.255v-1.187a7.065,7.065,0,0,1-1.018.085c0-.254.678-.254,1.018-.424v-.594a26.184,26.184,0,0,1-3.985.254v1.865Zm3.985-5.936c-1.357-.424-3.137-.763-3.137-.763s2.2-6.275-.594-7.8a1.24,1.24,0,0,0-.255-.678v1.526a6.228,6.228,0,0,1,.085,2.8c-.085.085,0-.933-.085-1.442v3.985c.17-.594.424-1.272.594-1.781.339-.848.17-3.138.424-2.883,0,0,.679,4.494-.933,6.021h-.085v1.357a5.069,5.069,0,0,1,.594.509c-.085.085-.424-.085-.594-.17v.594a10.348,10.348,0,0,1,2.544.594,7.455,7.455,0,0,1,1.442.509v-1.357a11.625,11.625,0,0,0-2.629-.933,5.29,5.29,0,0,1,2.629.424Zm-5.172,5.851a5.594,5.594,0,0,0,1.187.085v-1.865h-1.187V892.2Zm1.187-15.094a6.373,6.373,0,0,0-1.187-.678v.763a.855.855,0,0,1,.933.594c-.085.254-.594-.169-.933-.339v1.441a1.95,1.95,0,0,1,.509,1.357c0,.254-.255,1.272-.509,2.459v4.325c.169.085.254.254.424.339a3.945,3.945,0,0,0,.763.254v-.594h-.085c-.254,0-.593-.17-.593-.254.17-.254.424-.17.678-.085v-1.357c-.339-.17-.254-.678,0-1.357v-3.985a.083.083,0,0,1-.085-.085c-.169-.594-.593-1.611-.169-1.7.085.17.169.254.254.424Zm-6.19,14.839c1.272.085,3.222.17,5,.254v-1.781h-1.442c-.933-.085-1.018-.17-1.866-.254a9.263,9.263,0,0,0-1.7-.085v1.865Zm5-15.518h-.085c-1.357-.509-3.9,1.018-4.918,2.459v3.9c.254-.678.509-1.357.763-1.95a6.4,6.4,0,0,1,2.035-2.544s.339-.085.17.339a7.927,7.927,0,0,0-1.865,3.137c-.254.594-.678,1.95-1.1,3.137v1.781a.643.643,0,0,0,.17-.339c.424-.933,1.1-3.816,1.526-4.749.339-1.018,1.611-3.476,2.629-3.137a1.339,1.339,0,0,1,.678.424v-1.441h0c-.255-.17-.933-.254-.848-.339a4.929,4.929,0,0,1,.848.085v-.763Zm0,6.275v4.325c-.085-.085-.17-.254-.255-.339C1031.63,885.92,1031.969,884.14,1032.223,882.7Zm-10.006,7.886s-.594,1.018.17,1.1,3.222,0,3.646.17a9.584,9.584,0,0,1,1.187.085v-1.865c-.933-.085-1.95-.085-1.95-.085a27.967,27.967,0,0,0,1.95-3.307V884.9a13.9,13.9,0,0,1-.763,2.289c-.339.848-1.442,2.714-1.866,2.629-.509,0-.254-.254-.254-.254a18.416,18.416,0,0,0,1.865-3.392c.255-.848.678-2.12,1.017-3.392v-3.9c-.085.17-.17.254-.254.424-.678,1.611-1.866,5.512-2.2,6.19C1024.167,887.023,1022.217,890.584,1022.217,890.584Z" transform="translate(-988.793 -868.702)" fill="#fff" fill-rule="evenodd"/>
    <path id="Path_108" data-name="Path 108" d="M1026.794,890.108s.594-1.526-.424-1.7c-1.1-.17-4.494,0-5.088-.17a8.739,8.739,0,0,1-1.1-.085v2.8c1.187.085,2.289.085,2.289.085s-1.526,2.629-2.289,4.325v2.883c.339-1.357.678-2.629.848-3.137.509-1.272,1.866-3.985,2.459-3.9.678,0,.339.339.339.339a30.234,30.234,0,0,0-2.289,5c-.424,1.442-.848,3.477-1.357,5.427V908a3.118,3.118,0,0,0,.678-1.272c.933-2.29,2.289-8.056,2.714-9.158C1024.25,895.365,1026.794,890.108,1026.794,890.108Zm-6.614-1.95c-1.441-.085-3.9-.254-6.529-.339v2.629h1.1a23.68,23.68,0,0,1,2.713.339c.509.085,1.7.085,2.713.169v-2.8Zm-6.529,22.895.254.085c1.781.678,4.749-1.187,6.275-3.137v-6.02q-.382,1.4-.763,2.544a9.125,9.125,0,0,1-2.713,3.816s-.424.17-.17-.594a14.223,14.223,0,0,0,2.374-4.664c.254-.763.763-2.968,1.272-4.833v-2.883c-.17.424-.339.763-.424,1.018-.424,1.442-1.187,5.6-1.7,7.038-.424,1.442-1.95,5.173-3.477,4.664a9.21,9.21,0,0,1-.933-.509v2.035h.085c.339.254,1.357.339,1.187.424a5.364,5.364,0,0,1-1.272,0v1.018Zm0-12.889v-.509A.541.541,0,0,1,1013.651,898.163Zm0-10.345a9.219,9.219,0,0,0-1.526-.085v2.629c.594,0,1.1.085,1.526.085v-2.629Zm-1.526,22.216a3.912,3.912,0,0,0,1.526,1.018v-1.018c-.594-.085-1.187-.339-1.187-.933.085-.339.763.17,1.187.509v-2.035a2.984,2.984,0,0,1-.848-2.12c-.085-.594.848-4.579.848-7.292v-.509a4.767,4.767,0,0,0-.254-1.7c-.17-.424-.594-.678-1.018-1.018-.085,0-.169-.085-.254-.085v.763c.085.085.169.17.169.255a.182.182,0,0,1-.169.169V906.3c.339.933.763,2.035.339,2.12a1.49,1.49,0,0,1-.339-.424Zm0-22.3h-.424v2.629h.424v-2.629Zm-.424,21.538a3.709,3.709,0,0,0,.424.763V908a4.891,4.891,0,0,1-.424-1.187v2.459Zm.424-14.415v.763c-.085-.085-.255-.085-.424-.17v-.763c.169,0,.254.085.424.17Zm0,1.187V906.3c-.085-.085-.085-.254-.17-.424-.17-.509-.17-1.781-.254-2.12v-4.07a2.074,2.074,0,0,0,0-1.611v-2.035A.378.378,0,0,0,1012.124,896.043Zm-.424-8.31h-.254v2.629h.254v-2.629Zm-.254,21.284c.085,0,.17.085.254.169v-2.374a11.427,11.427,0,0,1,0-3.137v-3.985c-.085.339-.17.678-.254,1.1v8.225Zm.254-14.33v.763c-.085,0-.085,0-.17-.085h-.085V894.6c.085,0,.17.085.254.085Zm0,1.357v2.035c0-.085-.17-.17-.254-.17v-1.95C1011.531,895.958,1011.615,896.043,1011.7,896.043Zm-.254-8.31a44.659,44.659,0,0,0-5.681-.085h-.254v1.781c.763-.085,1.526-.085,1.526-.085,0,.339-1.018.424-1.526.678v.848a36.875,36.875,0,0,1,5.936-.509v-2.629Zm-5.936,8.649a43.352,43.352,0,0,0,4.749,1.187s-2.459,8.9,1.187,11.447v-8.225a15.833,15.833,0,0,0-.594,1.865c-.339,1.187,0,4.494-.339,4.24,0,0-1.187-6.614.933-8.988h0v-1.95c-.424-.339-.848-.763-.848-.763.085-.169.509.17.848.17V894.6a19.6,19.6,0,0,1-3.731-.933c-.509-.17-1.442-.424-2.2-.763v1.95a12.711,12.711,0,0,0,3.986,1.441,6.968,6.968,0,0,1-3.986-.678Zm0-8.734c-.424.085-.848.254-1.357.339v.848h.085c0,.085,0,.085-.085.17v1.187a2,2,0,0,1,1.357-.763v-1.781Zm-1.357,8.056a10.082,10.082,0,0,0,1.357.678v-.763a4.1,4.1,0,0,1-1.357-1.1V895.7Zm1.357-5.681v.848c-.424.17-.763.339-.848.594a1.437,1.437,0,0,0,.848,1.442v1.95l-1.272-.763h-.085v-3.222c.17.085.763-.339,1.187-.763A.3.3,0,0,0,1005.51,890.023Zm-1.357-2.035c-.424.17-.848.339-1.187.509v.848c.509-.254,1.018-.424,1.187-.509v-.848Zm-1.187,6.529v-4.494c.339-.339.933-.763,1.187-1.018v1.187a.9.9,0,0,0-.085.678h.085v3.222l-.254-.085.254.509V895.7a.848.848,0,0,1-.424-.339A3.447,3.447,0,0,1,1002.966,894.517Zm0-6.021a3.117,3.117,0,0,0-1.95,2.2,2.694,2.694,0,0,0,1.357,2.374,2.806,2.806,0,0,0,.594,1.441v-4.494c-.085.085-.085.169-.169.169-.424.763-.509,1.866-.763,1.611-.848-1.1,0-1.95.933-2.459Z" transform="translate(-992.522 -866.7)" fill="#fff" fill-rule="evenodd"/>
    <path id="Path_109" data-name="Path 109" d="M1037.573,901.69a2.632,2.632,0,0,0,1.187-1.526c.509-1.1-.17-2.968-1.187-4.409v4.494a.083.083,0,0,1,.085-.085c.169-.339.254-1.018.339-.933,0,0,.085,1.272-.424,1.781Zm-2.8,1.442a3.386,3.386,0,0,0,2.374-1.357,1.483,1.483,0,0,0,.424-.085v-.678c-.17.085-.254.17-.424.17-.255-.085.17-.594.424-.933v-4.494a6.127,6.127,0,0,0-1.781-1.611,5.654,5.654,0,0,0-1.017-.509V895.5a9.006,9.006,0,0,1,2.035,2.12s.085.339-.424.17a10.517,10.517,0,0,0-1.611-1.357v.594c1.017.678,2.035,1.611,1.7,2.289a1.941,1.941,0,0,1-1.7,1.272v.678c.763-.17,1.865-.594,1.865-.17a2.675,2.675,0,0,1-1.865.424v.763c.424.085.678.17.594.17a1.469,1.469,0,0,1-.594.085Zm-7.886,3.137a26.545,26.545,0,0,0,1.442-4.324s3.731,1.526,6.444,1.187v-.594c-1.357,0-4.833,0-6.105-1.526.17-.848,2.2.339,3.477.848a12.168,12.168,0,0,0,2.629.424v-.763a10.256,10.256,0,0,1-1.781-.17c-.085-.17,1.187,0,1.7-.085h.085v-.678h-.339c-.594,0-5.681-1.95-7.208-1.272a.455.455,0,0,0-.339.255v.848a1.047,1.047,0,0,1,.17-.254c.424.254.085.678-.17,1.017v2.629a12.121,12.121,0,0,1,.424-1.357,6.843,6.843,0,0,1-.424,2.629v1.187Zm7.886-12.635c-1.95-.933-5.088-2.12-5.766-2.459a12.849,12.849,0,0,1-2.12-1.1v2.035a9.261,9.261,0,0,0,1.272.678c1.526.678,4.24,1.526,5.936,2.29a7.828,7.828,0,0,0,.678.424v-1.865Zm0,2.8v.594c-.594-.339-1.187-.678-1.611-.933-1.1-.509-4.24-1.441-5.257-1.95a4.428,4.428,0,0,1-1.017-.594v-.594l.085.085c.933.424,4.918,1.865,5.936,2.374A13.115,13.115,0,0,1,1034.774,896.433Zm-11.278-8.395a5.611,5.611,0,0,0-.594-.254v13.228c.085-1.526.17-2.883.255-3.307a13.877,13.877,0,0,1,.339-2.12c.17-.933.509-3.985.509-3.985s1.611,1.187,2.883,1.95v-.594c-1.018-.509-2.8-1.781-2.713-2.2,0-.509.254-.255.254-.255s1.187.848,2.459,1.611v-2.035c-1.7-.933-3.392-2.035-3.392-2.035Zm-.594,20.775V908.3a.913.913,0,0,0,.594-.17c.085-.17-.254-.254-.594-.424v-1.357h0c.085,0,0-.085,0-.254v-1.7c.085.848.17,1.442.509,1.526,1.018.424,1.526-1.526,1.781-2.29.763-1.7.763-2.968,1.272-3.646a1.021,1.021,0,0,1,.424-.424v.848a.642.642,0,0,0-.169.339c-.085.254-.339.594-.255.763a3.064,3.064,0,0,1,.424-.339v2.629a9.959,9.959,0,0,1-1.611,2.713v.339a4.051,4.051,0,0,0,1.611-1.781v1.187a8.208,8.208,0,0,1-.594.763,3.064,3.064,0,0,1-1.865.933A1.712,1.712,0,0,1,1022.9,908.813Zm0-21.029a1.077,1.077,0,0,0-.509.085v17.383c.17.339.424.594.509.848v-1.7a22.578,22.578,0,0,1,0-3.392V887.784Zm-.509,20.944a.263.263,0,0,0,.17.085h.339V908.3a1.206,1.206,0,0,1-.509-.17v.594Zm.509-2.374v1.357a1.778,1.778,0,0,1-.509-.339v-1.1A.52.52,0,0,0,1022.9,906.354Zm-.509-18.485a1.174,1.174,0,0,0-.254.339c-.17.848-.17,3.561-.339,4.07-.17.424-1.357,10.939-1.272,12.465.085,1.442.678,3.646,1.865,3.985v-.594a3.629,3.629,0,0,1-1.018-2.035c.17-.085.594.848.933,1.272h.085v-1.1c-.678-.424-.509-2.374-.509-2.374.339,0,.254,1.017.509,1.357h0Z" transform="translate(-989.055 -866.666)" fill="#fff" fill-rule="evenodd"/>
    <path id="Path_110" data-name="Path 110" d="M1024.375,889.008l13.058,4.325a19.446,19.446,0,0,0,4.41.933,14.36,14.36,0,0,0,6.529-1.1l2.8-1.781-1.357-1.7a34.82,34.82,0,0,1-5.088,2.374,31.852,31.852,0,0,1-6.275,1.357l-1.018-.085a107.743,107.743,0,0,1-13.737-2.2Z" transform="translate(-988.491 -866.448)" fill="#fff" fill-rule="evenodd"/>
  </g>
</svg>
